solid Macbook-ollo
facet normal 0.6790235520085999 0.734116486545306 0.0
  outer loop
    vertex 80.71653570372727 116.69359065261133 1.9999999999999998
    vertex 81.18388750835395 116.26131200442482 0.9999999999999999
    vertex 80.71653570372727 116.69359065261133 0.9999999999999999
  endloop
endfacet
facet normal 0.6790235520085999 0.734116486545306 0.0
  outer loop
    vertex 81.18388750835395 116.26131200442482 0.9999999999999999
    vertex 80.71653570372727 116.69359065261133 1.9999999999999998
    vertex 81.18388750835395 116.26131200442482 1.9999999999999998
  endloop
endfacet
facet normal -0.15149084234965854 -0.9884586610901798 -0.0
  outer loop
    vertex 87.4880924638488 129.3369032954429 1.9999999999999998
    vertex 86.85882184055399 129.43334509978067 0.9999999999999999
    vertex 87.4880924638488 129.3369032954429 0.9999999999999999
  endloop
endfacet
facet normal -0.15149084234965854 -0.9884586610901798 -0.0
  outer loop
    vertex 86.85882184055399 129.43334509978067 0.9999999999999999
    vertex 87.4880924638488 129.3369032954429 1.9999999999999998
    vertex 86.85882184055399 129.43334509978067 1.9999999999999998
  endloop
endfacet
facet normal -0.5451901279225295 -0.8383124264949292 -0.0
  outer loop
    vertex 90.39038368154723 128.08650315188675 1.9999999999999998
    vertex 89.85669886102632 128.43358102688217 0.9999999999999999
    vertex 90.39038368154723 128.08650315188675 0.9999999999999999
  endloop
endfacet
facet normal -0.5451901279225295 -0.8383124264949292 -0.0
  outer loop
    vertex 89.85669886102632 128.43358102688217 0.9999999999999999
    vertex 90.39038368154723 128.08650315188675 1.9999999999999998
    vertex 89.85669886102632 128.43358102688217 1.9999999999999998
  endloop
endfacet
facet normal 0.574583231173156 -0.8184461561120655 0.0
  outer loop
    vertex 81.99332702749132 128.2940743403754 1.9999999999999998
    vertex 81.47228943324144 127.92828428536559 0.9999999999999999
    vertex 81.99332702749132 128.2940743403754 0.9999999999999999
  endloop
endfacet
facet normal 0.574583231173156 -0.8184461561120655 0.0
  outer loop
    vertex 81.47228943324144 127.92828428536559 0.9999999999999999
    vertex 81.99332702749132 128.2940743403754 1.9999999999999998
    vertex 81.47228943324144 127.92828428536559 1.9999999999999998
  endloop
endfacet
facet normal -0.26910458475872867 0.9631109606176396 0.0
  outer loop
    vertex 87.74819850574404 114.6758818434555 1.9999999999999998
    vertex 88.36133232544421 114.8471986788969 0.9999999999999999
    vertex 87.74819850574404 114.6758818434555 0.9999999999999999
  endloop
endfacet
facet normal -0.26910458475872867 0.9631109606176396 0.0
  outer loop
    vertex 88.36133232544421 114.8471986788969 0.9999999999999999
    vertex 87.74819850574404 114.6758818434555 1.9999999999999998
    vertex 88.36133232544421 114.8471986788969 1.9999999999999998
  endloop
endfacet
facet normal -1.0 0.0 0.0
  outer loop
    vertex 74.03829957234376 133.9783639993773 1.9999999999999998
    vertex 74.03829957234376 109.97836399937732 0.9999999999999999
    vertex 74.03829957234376 109.97836399937732 1.9999999999999998
  endloop
endfacet
facet normal -1.0 0.0 0.0
  outer loop
    vertex 74.03829957234376 109.97836399937732 0.9999999999999999
    vertex 74.03829957234376 133.9783639993773 1.9999999999999998
    vertex 74.03829957234376 133.9783639993773 0.9999999999999999
  endloop
endfacet
facet normal -0.0 -5.874930171974787e-17 -1.0
  outer loop
    vertex 98.03829957234376 133.9783639993773 8.999999999999998
    vertex 86.03829957234382 109.97836399937732 8.999999999999998
    vertex 86.03829957234382 133.9783639993773 8.999999999999998
  endloop
endfacet
facet normal -0.0 -5.874930171974787e-17 -1.0
  outer loop
    vertex 86.03829957234382 109.97836399937732 8.999999999999998
    vertex 98.03829957234376 133.9783639993773 8.999999999999998
    vertex 98.03829957234376 109.97836399937732 8.999999999999998
  endloop
endfacet
facet normal 0.5031042055970695 -0.8642257565651129 0.0
  outer loop
    vertex 82.5435087416172 128.61435955765413 1.9999999999999998
    vertex 81.99332702749132 128.2940743403754 0.9999999999999999
    vertex 82.5435087416172 128.61435955765413 0.9999999999999999
  endloop
endfacet
facet normal 0.5031042055970695 -0.8642257565651129 0.0
  outer loop
    vertex 81.99332702749132 128.2940743403754 0.9999999999999999
    vertex 82.5435087416172 128.61435955765413 1.9999999999999998
    vertex 81.99332702749132 128.2940743403754 1.9999999999999998
  endloop
endfacet
facet normal 0.9981889227091847 0.060157082547920904 0.0
  outer loop
    vertex 78.53947962444515 121.84532494872722 0.9999999999999999
    vertex 78.5777767089067 121.20985986527457 1.9999999999999998
    vertex 78.5777767089067 121.20985986527457 0.9999999999999999
  endloop
endfacet
facet normal 0.9981889227091847 0.060157082547920904 0.0
  outer loop
    vertex 78.5777767089067 121.20985986527457 1.9999999999999998
    vertex 78.53947962444515 121.84532494872722 0.9999999999999999
    vertex 78.53947962444515 121.84532494872722 1.9999999999999998
  endloop
endfacet
facet normal 0.0 0.0 1.0
  outer loop
    vertex 74.03829957234376 109.97836399937732 1.9999999999999998
    vertex 79.01215197792274 119.35476914090322 1.9999999999999998
    vertex 74.03829957234376 133.9783639993773 1.9999999999999998
  endloop
endfacet
facet normal 0.0 0.0 1.0
  outer loop
    vertex 79.01215197792274 119.35476914090322 1.9999999999999998
    vertex 74.03829957234376 109.97836399937732 1.9999999999999998
    vertex 79.25996014255564 118.76836172919435 1.9999999999999998
  endloop
endfacet
facet normal 0.0 0.0 1.0
  outer loop
    vertex 79.25996014255564 118.76836172919435 1.9999999999999998
    vertex 74.03829957234376 109.97836399937732 1.9999999999999998
    vertex 79.55660639810544 118.20508245739924 1.9999999999999998
  endloop
endfacet
facet normal 0.0 0.0 1.0
  outer loop
    vertex 79.55660639810544 118.20508245739924 1.9999999999999998
    vertex 74.03829957234376 109.97836399937732 1.9999999999999998
    vertex 79.89995340150328 117.66898976557863 1.9999999999999998
  endloop
endfacet
facet normal 0.0 0.0 1.0
  outer loop
    vertex 79.89995340150328 117.66898976557863 1.9999999999999998
    vertex 74.03829957234376 109.97836399937732 1.9999999999999998
    vertex 80.28752732972193 117.16394621386159 1.9999999999999998
  endloop
endfacet
facet normal 0.0 0.0 1.0
  outer loop
    vertex 80.28752732972193 117.16394621386159 1.9999999999999998
    vertex 74.03829957234376 109.97836399937732 1.9999999999999998
    vertex 80.71653570372727 116.69359065261133 1.9999999999999998
  endloop
endfacet
facet normal 0.0 0.0 1.0
  outer loop
    vertex 80.71653570372727 116.69359065261133 1.9999999999999998
    vertex 74.03829957234376 109.97836399937732 1.9999999999999998
    vertex 81.18388750835395 116.26131200442482 1.9999999999999998
  endloop
endfacet
facet normal 0.0 0.0 1.0
  outer loop
    vertex 81.18388750835395 116.26131200442482 1.9999999999999998
    vertex 74.03829957234376 109.97836399937732 1.9999999999999998
    vertex 81.68621546314027 115.8702248468679 1.9999999999999998
  endloop
endfacet
facet normal 0.0 0.0 1.0
  outer loop
    vertex 81.68621546314027 115.8702248468679 1.9999999999999998
    vertex 74.03829957234376 109.97836399937732 1.9999999999999998
    vertex 82.21990028366118 115.52314697187246 1.9999999999999998
  endloop
endfacet
facet normal 0.0 0.0 1.0
  outer loop
    vertex 82.21990028366118 115.52314697187246 1.9999999999999998
    vertex 74.03829957234376 109.97836399937732 1.9999999999999998
    vertex 82.78109675855546 115.2225790834812 1.9999999999999998
  endloop
endfacet
facet normal 0.0 0.0 1.0
  outer loop
    vertex 82.78109675855546 115.2225790834812 1.9999999999999998
    vertex 74.03829957234376 109.97836399937732 1.9999999999999998
    vertex 83.36576145436173 114.97068678021739 1.9999999999999998
  endloop
endfacet
facet normal 0.0 0.0 1.0
  outer loop
    vertex 83.36576145436173 114.97068678021739 1.9999999999999998
    vertex 74.03829957234376 109.97836399937732 1.9999999999999998
    vertex 98.03829957234376 109.97836399937732 1.9999999999999998
  endloop
endfacet
facet normal 0.0 0.0 1.0
  outer loop
    vertex 74.03829957234376 133.9783639993773 1.9999999999999998
    vertex 79.01215197792274 119.35476914090322 1.9999999999999998
    vertex 78.81496736771145 119.96007961368687 1.9999999999999998
  endloop
endfacet
facet normal 0.0 0.0 1.0
  outer loop
    vertex 74.03829957234376 133.9783639993773 1.9999999999999998
    vertex 78.81496736771145 119.96007961368687 1.9999999999999998
    vertex 78.66982703155682 120.57993187171833 1.9999999999999998
  endloop
endfacet
facet normal 0.0 0.0 1.0
  outer loop
    vertex 74.03829957234376 133.9783639993773 1.9999999999999998
    vertex 78.66982703155682 120.57993187171833 1.9999999999999998
    vertex 78.5777767089067 121.20985986527457 1.9999999999999998
  endloop
endfacet
facet normal 0.0 0.0 1.0
  outer loop
    vertex 74.03829957234376 133.9783639993773 1.9999999999999998
    vertex 78.5777767089067 121.20985986527457 1.9999999999999998
    vertex 78.53947962444515 121.84532494872722 1.9999999999999998
  endloop
endfacet
facet normal 0.0 0.0 1.0
  outer loop
    vertex 83.36576145436173 114.97068678021739 1.9999999999999998
    vertex 98.03829957234376 109.97836399937732 1.9999999999999998
    vertex 83.96968184854911 114.7692849518982 1.9999999999999998
  endloop
endfacet
facet normal 0.0 0.0 1.0
  outer loop
    vertex 83.96968184854911 114.7692849518982 1.9999999999999998
    vertex 98.03829957234376 109.97836399937732 1.9999999999999998
    vertex 84.5885066808387 114.61982470331172 1.9999999999999998
  endloop
endfacet
facet normal 0.0 0.0 1.0
  outer loop
    vertex 84.5885066808387 114.61982470331172 1.9999999999999998
    vertex 98.03829957234376 109.97836399937732 1.9999999999999998
    vertex 85.21777730413352 114.52338289897398 1.9999999999999998
  endloop
endfacet
facet normal 0.0 0.0 1.0
  outer loop
    vertex 85.21777730413352 114.52338289897398 1.9999999999999998
    vertex 98.03829957234376 109.97836399937732 1.9999999999999998
    vertex 85.85295980917302 114.48065440429511 1.9999999999999998
  endloop
endfacet
facet normal 0.0 0.0 1.0
  outer loop
    vertex 85.85295980917302 114.48065440429511 1.9999999999999998
    vertex 98.03829957234376 109.97836399937732 1.9999999999999998
    vertex 86.03829957234376 114.483942578476 1.9999999999999998
  endloop
endfacet
facet normal 0.0 0.0 1.0
  outer loop
    vertex 86.03829957234376 114.483942578476 1.9999999999999998
    vertex 98.03829957234376 109.97836399937732 1.9999999999999998
    vertex 86.4894776914532 114.49194707905842 1.9999999999999998
  endloop
endfacet
facet normal 0.0 0.0 1.0
  outer loop
    vertex 86.4894776914532 114.49194707905842 1.9999999999999998
    vertex 98.03829957234376 109.97836399937732 1.9999999999999998
    vertex 87.1227448250465 114.55717955928351 1.9999999999999998
  endloop
endfacet
facet normal 0.0 0.0 1.0
  outer loop
    vertex 87.1227448250465 114.55717955928351 1.9999999999999998
    vertex 98.03829957234376 109.97836399937732 1.9999999999999998
    vertex 87.74819850574404 114.6758818434555 1.9999999999999998
  endloop
endfacet
facet normal 0.0 0.0 1.0
  outer loop
    vertex 87.74819850574404 114.6758818434555 1.9999999999999998
    vertex 98.03829957234376 109.97836399937732 1.9999999999999998
    vertex 88.36133232544421 114.8471986788969 1.9999999999999998
  endloop
endfacet
facet normal 0.0 0.0 1.0
  outer loop
    vertex 88.36133232544421 114.8471986788969 1.9999999999999998
    vertex 98.03829957234376 109.97836399937732 1.9999999999999998
    vertex 88.95772864092612 115.06989572388265 1.9999999999999998
  endloop
endfacet
facet normal 0.0 0.0 1.0
  outer loop
    vertex 88.95772864092612 115.06989572388265 1.9999999999999998
    vertex 98.03829957234376 109.97836399937732 1.9999999999999998
    vertex 89.53309040307032 115.3423684411005 1.9999999999999998
  endloop
endfacet
facet normal 0.0 0.0 1.0
  outer loop
    vertex 89.53309040307032 115.3423684411005 1.9999999999999998
    vertex 98.03829957234376 109.97836399937732 1.9999999999999998
    vertex 90.08327211719619 115.66265365837924 1.9999999999999998
  endloop
endfacet
facet normal 0.0 0.0 1.0
  outer loop
    vertex 90.08327211719619 115.66265365837924 1.9999999999999998
    vertex 98.03829957234376 109.97836399937732 1.9999999999999998
    vertex 90.60430971144606 116.02844371338905 1.9999999999999998
  endloop
endfacet
facet normal 0.0 0.0 1.0
  outer loop
    vertex 90.60430971144606 116.02844371338905 1.9999999999999998
    vertex 98.03829957234376 109.97836399937732 1.9999999999999998
    vertex 91.09244909801383 116.4371030804015 1.9999999999999998
  endloop
endfacet
facet normal 0.0 0.0 1.0
  outer loop
    vertex 91.09244909801383 116.4371030804015 1.9999999999999998
    vertex 98.03829957234376 109.97836399937732 1.9999999999999998
    vertex 91.54417322143357 116.88568735931287 1.9999999999999998
  endloop
endfacet
facet normal 0.0 0.0 1.0
  outer loop
    vertex 91.54417322143357 116.88568735931287 1.9999999999999998
    vertex 98.03829957234376 109.97836399937732 1.9999999999999998
    vertex 91.95622739904483 117.3709644901143 1.9999999999999998
  endloop
endfacet
facet normal 0.0 0.0 1.0
  outer loop
    vertex 91.95622739904483 117.3709644901143 1.9999999999999998
    vertex 98.03829957234376 109.97836399937732 1.9999999999999998
    vertex 92.3256427710557 117.8894380399583 1.9999999999999998
  endloop
endfacet
facet normal 0.0 0.0 1.0
  outer loop
    vertex 92.3256427710557 117.8894380399583 1.9999999999999998
    vertex 98.03829957234376 109.97836399937732 1.9999999999999998
    vertex 92.64975769124571 118.43737239503744 1.9999999999999998
  endloop
endfacet
facet normal 0.0 0.0 1.0
  outer loop
    vertex 92.64975769124571 118.43737239503744 1.9999999999999998
    vertex 98.03829957234376 109.97836399937732 1.9999999999999998
    vertex 92.92623690418782 119.01081967576748 1.9999999999999998
  endloop
endfacet
facet normal 0.0 0.0 1.0
  outer loop
    vertex 92.92623690418782 119.01081967576748 1.9999999999999998
    vertex 98.03829957234376 109.97836399937732 1.9999999999999998
    vertex 93.15308837081727 119.60564818135026 1.9999999999999998
  endloop
endfacet
facet normal 0.0 0.0 1.0
  outer loop
    vertex 93.15308837081727 119.60564818135026 1.9999999999999998
    vertex 98.03829957234376 109.97836399937732 1.9999999999999998
    vertex 93.32867762111871 120.21757215877258 1.9999999999999998
  endloop
endfacet
facet normal 0.0 0.0 1.0
  outer loop
    vertex 93.32867762111871 120.21757215877258 1.9999999999999998
    vertex 98.03829957234376 109.97836399937732 1.9999999999999998
    vertex 93.45173953052011 120.8421826817549 1.9999999999999998
  endloop
endfacet
facet normal 0.0 0.0 1.0
  outer loop
    vertex 93.45173953052011 120.8421826817549 1.9999999999999998
    vertex 98.03829957234376 109.97836399937732 1.9999999999999998
    vertex 93.52138743514425 121.47497941716624 1.9999999999999998
  endloop
endfacet
facet normal 0.0 0.0 1.0
  outer loop
    vertex 93.52138743514425 121.47497941716624 1.9999999999999998
    vertex 98.03829957234376 109.97836399937732 1.9999999999999998
    vertex 93.53383085910829 121.97836399937732 1.9999999999999998
  endloop
endfacet
facet normal 0.0 0.0 1.0
  outer loop
    vertex 93.53383085910829 121.97836399937732 1.9999999999999998
    vertex 98.03829957234376 109.97836399937732 1.9999999999999998
    vertex 93.53711952024237 122.11140305002742 1.9999999999999998
  endloop
endfacet
facet normal 0.0 0.0 1.0
  outer loop
    vertex 74.03829957234376 133.9783639993773 1.9999999999999998
    vertex 83.7152668192433 129.10952931985773 1.9999999999999998
    vertex 98.03829957234376 133.9783639993773 1.9999999999999998
  endloop
endfacet
facet normal 0.0 0.0 1.0
  outer loop
    vertex 83.7152668192433 129.10952931985773 1.9999999999999998
    vertex 74.03829957234376 133.9783639993773 1.9999999999999998
    vertex 83.1188705037614 128.886832274872 1.9999999999999998
  endloop
endfacet
facet normal 0.0 0.0 1.0
  outer loop
    vertex 83.1188705037614 128.886832274872 1.9999999999999998
    vertex 74.03829957234376 133.9783639993773 1.9999999999999998
    vertex 82.5435087416172 128.61435955765413 1.9999999999999998
  endloop
endfacet
facet normal 0.0 0.0 1.0
  outer loop
    vertex 82.5435087416172 128.61435955765413 1.9999999999999998
    vertex 74.03829957234376 133.9783639993773 1.9999999999999998
    vertex 81.99332702749132 128.2940743403754 1.9999999999999998
  endloop
endfacet
facet normal 0.0 0.0 1.0
  outer loop
    vertex 81.99332702749132 128.2940743403754 1.9999999999999998
    vertex 74.03829957234376 133.9783639993773 1.9999999999999998
    vertex 81.47228943324144 127.92828428536559 1.9999999999999998
  endloop
endfacet
facet normal 0.0 0.0 1.0
  outer loop
    vertex 81.47228943324144 127.92828428536559 1.9999999999999998
    vertex 74.03829957234376 133.9783639993773 1.9999999999999998
    vertex 80.98415004667368 127.51962491835314 1.9999999999999998
  endloop
endfacet
facet normal 0.0 0.0 1.0
  outer loop
    vertex 80.98415004667368 127.51962491835314 1.9999999999999998
    vertex 74.03829957234376 133.9783639993773 1.9999999999999998
    vertex 80.53242592325392 127.07104063944178 1.9999999999999998
  endloop
endfacet
facet normal 0.0 0.0 1.0
  outer loop
    vertex 80.53242592325392 127.07104063944178 1.9999999999999998
    vertex 74.03829957234376 133.9783639993773 1.9999999999999998
    vertex 80.12037174564269 126.58576350864034 1.9999999999999998
  endloop
endfacet
facet normal 0.0 0.0 1.0
  outer loop
    vertex 80.12037174564269 126.58576350864034 1.9999999999999998
    vertex 74.03829957234376 133.9783639993773 1.9999999999999998
    vertex 79.75095637363182 126.06728995879634 1.9999999999999998
  endloop
endfacet
facet normal 0.0 0.0 1.0
  outer loop
    vertex 79.75095637363182 126.06728995879634 1.9999999999999998
    vertex 74.03829957234376 133.9783639993773 1.9999999999999998
    vertex 79.42684145344181 125.5193556037172 1.9999999999999998
  endloop
endfacet
facet normal 0.0 0.0 1.0
  outer loop
    vertex 79.42684145344181 125.5193556037172 1.9999999999999998
    vertex 74.03829957234376 133.9783639993773 1.9999999999999998
    vertex 79.15036224049969 124.94590832298715 1.9999999999999998
  endloop
endfacet
facet normal 0.0 0.0 1.0
  outer loop
    vertex 79.15036224049969 124.94590832298715 1.9999999999999998
    vertex 74.03829957234376 133.9783639993773 1.9999999999999998
    vertex 78.92351077387025 124.35107981740438 1.9999999999999998
  endloop
endfacet
facet normal 0.0 0.0 1.0
  outer loop
    vertex 78.92351077387025 124.35107981740438 1.9999999999999998
    vertex 74.03829957234376 133.9783639993773 1.9999999999999998
    vertex 78.7479215235688 123.73915583998206 1.9999999999999998
  endloop
endfacet
facet normal 0.0 0.0 1.0
  outer loop
    vertex 78.7479215235688 123.73915583998206 1.9999999999999998
    vertex 74.03829957234376 133.9783639993773 1.9999999999999998
    vertex 78.6248596141674 123.11454531699974 1.9999999999999998
  endloop
endfacet
facet normal 0.0 0.0 1.0
  outer loop
    vertex 78.6248596141674 123.11454531699974 1.9999999999999998
    vertex 74.03829957234376 133.9783639993773 1.9999999999999998
    vertex 78.55521170954326 122.4817485815884 1.9999999999999998
  endloop
endfacet
facet normal 0.0 0.0 1.0
  outer loop
    vertex 78.55521170954326 122.4817485815884 1.9999999999999998
    vertex 74.03829957234376 133.9783639993773 1.9999999999999998
    vertex 78.54276828557921 121.97836399937732 1.9999999999999998
  endloop
endfacet
facet normal 0.0 0.0 1.0
  outer loop
    vertex 78.54276828557921 121.97836399937732 1.9999999999999998
    vertex 74.03829957234376 133.9783639993773 1.9999999999999998
    vertex 78.53947962444515 121.84532494872722 1.9999999999999998
  endloop
endfacet
facet normal 0.0 0.0 1.0
  outer loop
    vertex 98.03829957234376 133.9783639993773 1.9999999999999998
    vertex 83.7152668192433 129.10952931985773 1.9999999999999998
    vertex 84.32840063894346 129.28084615529914 1.9999999999999998
  endloop
endfacet
facet normal 0.0 0.0 1.0
  outer loop
    vertex 98.03829957234376 133.9783639993773 1.9999999999999998
    vertex 84.32840063894346 129.28084615529914 1.9999999999999998
    vertex 84.95385431964101 129.39954843947115 1.9999999999999998
  endloop
endfacet
facet normal 0.0 0.0 1.0
  outer loop
    vertex 98.03829957234376 133.9783639993773 1.9999999999999998
    vertex 84.95385431964101 129.39954843947115 1.9999999999999998
    vertex 85.5871214532343 129.4647809196962 1.9999999999999998
  endloop
endfacet
facet normal 0.0 0.0 1.0
  outer loop
    vertex 98.03829957234376 133.9783639993773 1.9999999999999998
    vertex 85.5871214532343 129.4647809196962 1.9999999999999998
    vertex 86.03829957234376 129.47278542027863 1.9999999999999998
  endloop
endfacet
facet normal 0.0 0.0 1.0
  outer loop
    vertex 98.03829957234376 133.9783639993773 1.9999999999999998
    vertex 86.03829957234376 129.47278542027863 1.9999999999999998
    vertex 86.22363933551449 129.47607359445954 1.9999999999999998
  endloop
endfacet
facet normal 0.0 0.0 1.0
  outer loop
    vertex 98.03829957234376 133.9783639993773 1.9999999999999998
    vertex 86.22363933551449 129.47607359445954 1.9999999999999998
    vertex 86.85882184055399 129.43334509978067 1.9999999999999998
  endloop
endfacet
facet normal 0.0 0.0 1.0
  outer loop
    vertex 98.03829957234376 133.9783639993773 1.9999999999999998
    vertex 86.85882184055399 129.43334509978067 1.9999999999999998
    vertex 87.4880924638488 129.3369032954429 1.9999999999999998
  endloop
endfacet
facet normal 0.0 0.0 1.0
  outer loop
    vertex 98.03829957234376 133.9783639993773 1.9999999999999998
    vertex 87.4880924638488 129.3369032954429 1.9999999999999998
    vertex 88.10691729613839 129.18744304685646 1.9999999999999998
  endloop
endfacet
facet normal 0.0 0.0 1.0
  outer loop
    vertex 98.03829957234376 133.9783639993773 1.9999999999999998
    vertex 88.10691729613839 129.18744304685646 1.9999999999999998
    vertex 88.71083769032577 128.98604121853725 1.9999999999999998
  endloop
endfacet
facet normal 0.0 0.0 1.0
  outer loop
    vertex 98.03829957234376 133.9783639993773 1.9999999999999998
    vertex 88.71083769032577 128.98604121853725 1.9999999999999998
    vertex 89.29550238613204 128.73414891527347 1.9999999999999998
  endloop
endfacet
facet normal 0.0 0.0 1.0
  outer loop
    vertex 98.03829957234376 133.9783639993773 1.9999999999999998
    vertex 89.29550238613204 128.73414891527347 1.9999999999999998
    vertex 89.85669886102632 128.43358102688217 1.9999999999999998
  endloop
endfacet
facet normal 0.0 0.0 1.0
  outer loop
    vertex 98.03829957234376 133.9783639993773 1.9999999999999998
    vertex 89.85669886102632 128.43358102688217 1.9999999999999998
    vertex 90.39038368154723 128.08650315188675 1.9999999999999998
  endloop
endfacet
facet normal 0.0 0.0 1.0
  outer loop
    vertex 98.03829957234376 133.9783639993773 1.9999999999999998
    vertex 90.39038368154723 128.08650315188675 1.9999999999999998
    vertex 90.89271163633356 127.69541599432982 1.9999999999999998
  endloop
endfacet
facet normal 0.0 0.0 1.0
  outer loop
    vertex 98.03829957234376 133.9783639993773 1.9999999999999998
    vertex 90.89271163633356 127.69541599432982 1.9999999999999998
    vertex 91.36006344096023 127.26313734614331 1.9999999999999998
  endloop
endfacet
facet normal 0.0 0.0 1.0
  outer loop
    vertex 98.03829957234376 133.9783639993773 1.9999999999999998
    vertex 91.36006344096023 127.26313734614331 1.9999999999999998
    vertex 91.7890718149656 126.79278178489305 1.9999999999999998
  endloop
endfacet
facet normal 0.0 0.0 1.0
  outer loop
    vertex 98.03829957234376 133.9783639993773 1.9999999999999998
    vertex 91.7890718149656 126.79278178489305 1.9999999999999998
    vertex 92.17664574318422 126.28773823317604 1.9999999999999998
  endloop
endfacet
facet normal 0.0 0.0 1.0
  outer loop
    vertex 98.03829957234376 133.9783639993773 1.9999999999999998
    vertex 92.17664574318422 126.28773823317604 1.9999999999999998
    vertex 92.51999274658208 125.7516455413554 1.9999999999999998
  endloop
endfacet
facet normal 0.0 0.0 1.0
  outer loop
    vertex 98.03829957234376 133.9783639993773 1.9999999999999998
    vertex 92.51999274658208 125.7516455413554 1.9999999999999998
    vertex 92.81663900213188 125.18836626956028 1.9999999999999998
  endloop
endfacet
facet normal 0.0 0.0 1.0
  outer loop
    vertex 98.03829957234376 133.9783639993773 1.9999999999999998
    vertex 92.81663900213188 125.18836626956028 1.9999999999999998
    vertex 93.06444716676477 124.60195885785143 1.9999999999999998
  endloop
endfacet
facet normal 0.0 0.0 1.0
  outer loop
    vertex 98.03829957234376 133.9783639993773 1.9999999999999998
    vertex 93.06444716676477 124.60195885785143 1.9999999999999998
    vertex 93.26163177697606 123.99664838506777 1.9999999999999998
  endloop
endfacet
facet normal 0.0 0.0 1.0
  outer loop
    vertex 98.03829957234376 133.9783639993773 1.9999999999999998
    vertex 93.26163177697606 123.99664838506777 1.9999999999999998
    vertex 93.4067721131307 123.37679612703631 1.9999999999999998
  endloop
endfacet
facet normal 0.0 0.0 1.0
  outer loop
    vertex 98.03829957234376 133.9783639993773 1.9999999999999998
    vertex 93.4067721131307 123.37679612703631 1.9999999999999998
    vertex 93.49882243578081 122.74686813348008 1.9999999999999998
  endloop
endfacet
facet normal 0.0 0.0 1.0
  outer loop
    vertex 98.03829957234376 133.9783639993773 1.9999999999999998
    vertex 93.49882243578081 122.74686813348008 1.9999999999999998
    vertex 93.53711952024237 122.11140305002742 1.9999999999999998
  endloop
endfacet
facet normal 0.0 0.0 1.0
  outer loop
    vertex 98.03829957234376 133.9783639993773 1.9999999999999998
    vertex 93.53711952024237 122.11140305002742 1.9999999999999998
    vertex 98.03829957234376 109.97836399937732 1.9999999999999998
  endloop
endfacet
facet normal -0.9736642874562427 -0.22798652445337042 -0.0
  outer loop
    vertex 93.26163177697606 123.99664838506777 1.9999999999999998
    vertex 93.4067721131307 123.37679612703631 0.9999999999999999
    vertex 93.4067721131307 123.37679612703631 1.9999999999999998
  endloop
endfacet
facet normal -0.9736642874562427 -0.22798652445337042 -0.0
  outer loop
    vertex 93.4067721131307 123.37679612703631 0.9999999999999999
    vertex 93.26163177697606 123.99664838506777 1.9999999999999998
    vertex 93.26163177697606 123.99664838506777 0.9999999999999999
  endloop
endfacet
facet normal -1.0 0.0 0.0
  outer loop
    vertex 98.03829957234376 133.9783639993773 8.999999999999998
    vertex 98.03829957234376 109.97836399937732 1.9999999999999998
    vertex 98.03829957234376 109.97836399937732 8.999999999999998
  endloop
endfacet
facet normal -1.0 0.0 0.0
  outer loop
    vertex 98.03829957234376 109.97836399937732 1.9999999999999998
    vertex 98.03829957234376 133.9783639993773 8.999999999999998
    vertex 98.03829957234376 133.9783639993773 1.9999999999999998
  endloop
endfacet
facet normal -0.6790235520085999 -0.734116486545306 -0.0
  outer loop
    vertex 91.36006344096023 127.26313734614331 1.9999999999999998
    vertex 90.89271163633356 127.69541599432982 0.9999999999999999
    vertex 91.36006344096023 127.26313734614331 0.9999999999999999
  endloop
endfacet
facet normal -0.6790235520085999 -0.734116486545306 -0.0
  outer loop
    vertex 90.89271163633356 127.69541599432982 0.9999999999999999
    vertex 91.36006344096023 127.26313734614331 1.9999999999999998
    vertex 90.89271163633356 127.69541599432982 1.9999999999999998
  endloop
endfacet
facet normal 0.01773854008669431 -0.9998426597198145 0.0
  outer loop
    vertex 86.22363933551449 129.47607359445954 1.9999999999999998
    vertex 86.03829957234376 129.47278542027863 0.9999999999999999
    vertex 86.22363933551449 129.47607359445954 0.9999999999999999
  endloop
endfacet
facet normal 0.01773854008669431 -0.9998426597198145 0.0
  outer loop
    vertex 86.03829957234376 129.47278542027863 0.9999999999999999
    vertex 86.22363933551449 129.47607359445954 1.9999999999999998
    vertex 86.03829957234376 129.47278542027863 1.9999999999999998
  endloop
endfacet
facet normal -0.9996946126776283 0.02471196842274735 0.0
  outer loop
    vertex 93.53711952024237 122.11140305002742 1.9999999999999998
    vertex 93.53383085910829 121.97836399937732 0.9999999999999999
    vertex 93.53383085910829 121.97836399937732 1.9999999999999998
  endloop
endfacet
facet normal -0.9996946126776283 0.02471196842274735 0.0
  outer loop
    vertex 93.53383085910829 121.97836399937732 0.9999999999999999
    vertex 93.53711952024237 122.11140305002742 1.9999999999999998
    vertex 93.53711952024237 122.11140305002742 0.9999999999999999
  endloop
endfacet
facet normal 0.9894912586791748 0.14459270036036664 0.0
  outer loop
    vertex 78.5777767089067 121.20985986527457 0.9999999999999999
    vertex 78.66982703155682 120.57993187171833 1.9999999999999998
    vertex 78.66982703155682 120.57993187171833 0.9999999999999999
  endloop
endfacet
facet normal 0.9894912586791748 0.14459270036036664 0.0
  outer loop
    vertex 78.66982703155682 120.57993187171833 1.9999999999999998
    vertex 78.5777767089067 121.20985986527457 0.9999999999999999
    vertex 78.5777767089067 121.20985986527457 1.9999999999999998
  endloop
endfacet
facet normal -0.06711794429481932 -0.9977450483733996 -0.0
  outer loop
    vertex 86.85882184055399 129.43334509978067 1.9999999999999998
    vertex 86.22363933551449 129.47607359445954 0.9999999999999999
    vertex 86.85882184055399 129.43334509978067 0.9999999999999999
  endloop
endfacet
facet normal -0.06711794429481932 -0.9977450483733996 -0.0
  outer loop
    vertex 86.22363933551449 129.47607359445954 0.9999999999999999
    vertex 86.85882184055399 129.43334509978067 1.9999999999999998
    vertex 86.22363933551449 129.47607359445954 1.9999999999999998
  endloop
endfacet
facet normal -0.01773854008669431 0.9998426597198145 0.0
  outer loop
    vertex 85.85295980917302 114.48065440429511 1.9999999999999998
    vertex 86.03829957234376 114.483942578476 0.9999999999999999
    vertex 85.85295980917302 114.48065440429511 0.9999999999999999
  endloop
endfacet
facet normal -0.01773854008669431 0.9998426597198145 0.0
  outer loop
    vertex 86.03829957234376 114.483942578476 0.9999999999999999
    vertex 85.85295980917302 114.48065440429511 1.9999999999999998
    vertex 86.03829957234376 114.483942578476 1.9999999999999998
  endloop
endfacet
facet normal -0.8847994077702406 -0.4659721107635432 -0.0
  outer loop
    vertex 92.51999274658208 125.7516455413554 1.9999999999999998
    vertex 92.81663900213188 125.18836626956028 0.9999999999999999
    vertex 92.81663900213188 125.18836626956028 1.9999999999999998
  endloop
endfacet
facet normal -0.8847994077702406 -0.4659721107635432 -0.0
  outer loop
    vertex 92.81663900213188 125.18836626956028 0.9999999999999999
    vertex 92.51999274658208 125.7516455413554 1.9999999999999998
    vertex 92.51999274658208 125.7516455413554 0.9999999999999999
  endloop
endfacet
facet normal 0.9939974800537814 -0.10940296909468394 0.0
  outer loop
    vertex 78.6248596141674 123.11454531699974 0.9999999999999999
    vertex 78.55521170954326 122.4817485815884 1.9999999999999998
    vertex 78.55521170954326 122.4817485815884 0.9999999999999999
  endloop
endfacet
facet normal 0.9939974800537814 -0.10940296909468394 0.0
  outer loop
    vertex 78.55521170954326 122.4817485815884 1.9999999999999998
    vertex 78.6248596141674 123.11454531699974 0.9999999999999999
    vertex 78.6248596141674 123.11454531699974 1.9999999999999998
  endloop
endfacet
facet normal 0.3498126477965486 -0.9368196792561351 0.0
  outer loop
    vertex 83.7152668192433 129.10952931985773 1.9999999999999998
    vertex 83.1188705037614 128.886832274872 0.9999999999999999
    vertex 83.7152668192433 129.10952931985773 0.9999999999999999
  endloop
endfacet
facet normal 0.3498126477965486 -0.9368196792561351 0.0
  outer loop
    vertex 83.1188705037614 128.886832274872 0.9999999999999999
    vertex 83.7152668192433 129.10952931985773 1.9999999999999998
    vertex 83.1188705037614 128.886832274872 1.9999999999999998
  endloop
endfacet
facet normal -0.7933227047984294 -0.6088013518803191 -0.0
  outer loop
    vertex 91.7890718149656 126.79278178489305 1.9999999999999998
    vertex 92.17664574318422 126.28773823317604 0.9999999999999999
    vertex 92.17664574318422 126.28773823317604 1.9999999999999998
  endloop
endfacet
facet normal -0.7933227047984294 -0.6088013518803191 -0.0
  outer loop
    vertex 92.17664574318422 126.28773823317604 0.9999999999999999
    vertex 91.7890718149656 126.79278178489305 1.9999999999999998
    vertex 91.7890718149656 126.79278178489305 0.9999999999999999
  endloop
endfacet
facet normal 0.7046364462354597 -0.7095685158155357 0.0
  outer loop
    vertex 80.98415004667368 127.51962491835314 1.9999999999999998
    vertex 80.53242592325392 127.07104063944178 0.9999999999999999
    vertex 80.98415004667368 127.51962491835314 0.9999999999999999
  endloop
endfacet
facet normal 0.7046364462354597 -0.7095685158155357 0.0
  outer loop
    vertex 80.53242592325392 127.07104063944178 0.9999999999999999
    vertex 80.98415004667368 127.51962491835314 1.9999999999999998
    vertex 80.53242592325392 127.07104063944178 1.9999999999999998
  endloop
endfacet
facet normal 0.42800030269106876 -0.9037785906384116 0.0
  outer loop
    vertex 83.1188705037614 128.886832274872 1.9999999999999998
    vertex 82.5435087416172 128.61435955765413 0.9999999999999999
    vertex 83.1188705037614 128.886832274872 0.9999999999999999
  endloop
endfacet
facet normal 0.42800030269106876 -0.9037785906384116 0.0
  outer loop
    vertex 82.5435087416172 128.61435955765413 0.9999999999999999
    vertex 83.1188705037614 128.886832274872 1.9999999999999998
    vertex 82.5435087416172 128.61435955765413 1.9999999999999998
  endloop
endfacet
facet normal 0.6419223714021035 -0.7667696323495734 0.0
  outer loop
    vertex 81.47228943324144 127.92828428536559 1.9999999999999998
    vertex 80.98415004667368 127.51962491835314 0.9999999999999999
    vertex 81.47228943324144 127.92828428536559 0.9999999999999999
  endloop
endfacet
facet normal 0.6419223714021035 -0.7667696323495734 0.0
  outer loop
    vertex 80.98415004667368 127.51962491835314 0.9999999999999999
    vertex 81.47228943324144 127.92828428536559 1.9999999999999998
    vertex 80.98415004667368 127.51962491835314 1.9999999999999998
  endloop
endfacet
facet normal 0.9736642874562427 0.22798652445337042 0.0
  outer loop
    vertex 78.66982703155682 120.57993187171833 0.9999999999999999
    vertex 78.81496736771145 119.96007961368687 1.9999999999999998
    vertex 78.81496736771145 119.96007961368687 0.9999999999999999
  endloop
endfacet
facet normal 0.9736642874562427 0.22798652445337042 0.0
  outer loop
    vertex 78.81496736771145 119.96007961368687 1.9999999999999998
    vertex 78.66982703155682 120.57993187171833 0.9999999999999999
    vertex 78.66982703155682 120.57993187171833 1.9999999999999998
  endloop
endfacet
facet normal 0.18645761702120434 -0.9824630054382578 0.0
  outer loop
    vertex 84.95385431964101 129.39954843947115 1.9999999999999998
    vertex 84.32840063894346 129.28084615529914 0.9999999999999999
    vertex 84.95385431964101 129.39954843947115 0.9999999999999999
  endloop
endfacet
facet normal 0.18645761702120434 -0.9824630054382578 0.0
  outer loop
    vertex 84.32840063894346 129.28084615529914 0.9999999999999999
    vertex 84.95385431964101 129.39954843947115 1.9999999999999998
    vertex 84.32840063894346 129.28084615529914 1.9999999999999998
  endloop
endfacet
facet normal 0.9007713221194823 -0.4342937085051082 0.0
  outer loop
    vertex 79.42684145344181 125.5193556037172 0.9999999999999999
    vertex 79.15036224049969 124.94590832298715 1.9999999999999998
    vertex 79.15036224049969 124.94590832298715 0.9999999999999999
  endloop
endfacet
facet normal 0.9007713221194823 -0.4342937085051082 0.0
  outer loop
    vertex 79.15036224049969 124.94590832298715 1.9999999999999998
    vertex 79.42684145344181 125.5193556037172 0.9999999999999999
    vertex 79.42684145344181 125.5193556037172 1.9999999999999998
  endloop
endfacet
facet normal 0.6143199345684034 0.7890570435601424 0.0
  outer loop
    vertex 81.18388750835395 116.26131200442482 1.9999999999999998
    vertex 81.68621546314027 115.8702248468679 0.9999999999999999
    vertex 81.18388750835395 116.26131200442482 0.9999999999999999
  endloop
endfacet
facet normal 0.6143199345684034 0.7890570435601424 0.0
  outer loop
    vertex 81.68621546314027 115.8702248468679 0.9999999999999999
    vertex 81.18388750835395 116.26131200442482 1.9999999999999998
    vertex 81.68621546314027 115.8702248468679 1.9999999999999998
  endloop
endfacet
facet normal -0.8420947121330826 -0.5393296726469822 -0.0
  outer loop
    vertex 92.17664574318422 126.28773823317604 1.9999999999999998
    vertex 92.51999274658208 125.7516455413554 0.9999999999999999
    vertex 92.51999274658208 125.7516455413554 1.9999999999999998
  endloop
endfacet
facet normal -0.8420947121330826 -0.5393296726469822 -0.0
  outer loop
    vertex 92.51999274658208 125.7516455413554 0.9999999999999999
    vertex 92.17664574318422 126.28773823317604 1.9999999999999998
    vertex 92.17664574318422 126.28773823317604 0.9999999999999999
  endloop
endfacet
facet normal -0.9939974800537814 0.10940296909468394 0.0
  outer loop
    vertex 93.52138743514425 121.47497941716624 1.9999999999999998
    vertex 93.45173953052011 120.8421826817549 0.9999999999999999
    vertex 93.45173953052011 120.8421826817549 1.9999999999999998
  endloop
endfacet
facet normal -0.9939974800537814 0.10940296909468394 0.0
  outer loop
    vertex 93.45173953052011 120.8421826817549 0.9999999999999999
    vertex 93.52138743514425 121.47497941716624 1.9999999999999998
    vertex 93.52138743514425 121.47497941716624 0.9999999999999999
  endloop
endfacet
facet normal 0.26910458475872867 -0.9631109606176396 0.0
  outer loop
    vertex 84.32840063894346 129.28084615529914 1.9999999999999998
    vertex 83.7152668192433 129.10952931985773 0.9999999999999999
    vertex 84.32840063894346 129.28084615529914 0.9999999999999999
  endloop
endfacet
facet normal 0.26910458475872867 -0.9631109606176396 0.0
  outer loop
    vertex 83.7152668192433 129.10952931985773 0.9999999999999999
    vertex 84.32840063894346 129.28084615529914 1.9999999999999998
    vertex 83.7152668192433 129.10952931985773 1.9999999999999998
  endloop
endfacet
facet normal 0.39567257648130616 0.9183916442458766 0.0
  outer loop
    vertex 82.78109675855546 115.2225790834812 1.9999999999999998
    vertex 83.36576145436173 114.97068678021739 0.9999999999999999
    vertex 82.78109675855546 115.2225790834812 0.9999999999999999
  endloop
endfacet
facet normal 0.39567257648130616 0.9183916442458766 0.0
  outer loop
    vertex 83.36576145436173 114.97068678021739 0.9999999999999999
    vertex 82.78109675855546 115.2225790834812 1.9999999999999998
    vertex 83.36576145436173 114.97068678021739 1.9999999999999998
  endloop
endfacet
facet normal 0.0 1.0 0.0
  outer loop
    vertex 86.03829957234382 133.9783639993773 9.999999999999998
    vertex 98.03829957234376 133.9783639993773 8.999999999999998
    vertex 86.03829957234382 133.9783639993773 8.999999999999998
  endloop
endfacet
facet normal 0.0 1.0 0.0
  outer loop
    vertex 74.03829957234376 133.9783639993773 1.9999999999999998
    vertex 99.03829957234376 133.9783639993773 0.9999999999999999
    vertex 74.03829957234376 133.9783639993773 0.9999999999999999
  endloop
endfacet
facet normal 0.0 1.0 0.0
  outer loop
    vertex 99.03829957234376 133.9783639993773 0.9999999999999999
    vertex 74.03829957234376 133.9783639993773 1.9999999999999998
    vertex 98.03829957234376 133.9783639993773 1.9999999999999998
  endloop
endfacet
facet normal 0.0 1.0 0.0
  outer loop
    vertex 99.03829957234376 133.9783639993773 0.9999999999999999
    vertex 98.03829957234376 133.9783639993773 1.9999999999999998
    vertex 99.03829957234376 133.9783639993773 9.999999999999998
  endloop
endfacet
facet normal 0.0 1.0 0.0
  outer loop
    vertex 99.03829957234376 133.9783639993773 9.999999999999998
    vertex 98.03829957234376 133.9783639993773 1.9999999999999998
    vertex 98.03829957234376 133.9783639993773 8.999999999999998
  endloop
endfacet
facet normal 0.0 1.0 0.0
  outer loop
    vertex 99.03829957234376 133.9783639993773 9.999999999999998
    vertex 98.03829957234376 133.9783639993773 8.999999999999998
    vertex 86.03829957234382 133.9783639993773 9.999999999999998
  endloop
endfacet
facet normal 0.8144185536679246 -0.580277881227129 0.0
  outer loop
    vertex 80.12037174564269 126.58576350864034 0.9999999999999999
    vertex 79.75095637363182 126.06728995879634 1.9999999999999998
    vertex 79.75095637363182 126.06728995879634 0.9999999999999999
  endloop
endfacet
facet normal 0.8144185536679246 -0.580277881227129 0.0
  outer loop
    vertex 79.75095637363182 126.06728995879634 1.9999999999999998
    vertex 80.12037174564269 126.58576350864034 0.9999999999999999
    vertex 80.12037174564269 126.58576350864034 1.9999999999999998
  endloop
endfacet
facet normal -0.9981889227091847 -0.060157082547920904 -0.0
  outer loop
    vertex 93.49882243578081 122.74686813348008 1.9999999999999998
    vertex 93.53711952024237 122.11140305002742 0.9999999999999999
    vertex 93.53711952024237 122.11140305002742 1.9999999999999998
  endloop
endfacet
facet normal -0.9981889227091847 -0.060157082547920904 -0.0
  outer loop
    vertex 93.53711952024237 122.11140305002742 0.9999999999999999
    vertex 93.49882243578081 122.74686813348008 1.9999999999999998
    vertex 93.49882243578081 122.74686813348008 0.9999999999999999
  endloop
endfacet
facet normal -0.9007713221194823 0.4342937085051082 0.0
  outer loop
    vertex 92.92623690418782 119.01081967576748 1.9999999999999998
    vertex 92.64975769124571 118.43737239503744 0.9999999999999999
    vertex 92.64975769124571 118.43737239503744 1.9999999999999998
  endloop
endfacet
facet normal -0.9007713221194823 0.4342937085051082 0.0
  outer loop
    vertex 92.64975769124571 118.43737239503744 0.9999999999999999
    vertex 92.92623690418782 119.01081967576748 1.9999999999999998
    vertex 92.92623690418782 119.01081967576748 0.9999999999999999
  endloop
endfacet
facet normal 0.8847994077702406 0.4659721107635432 0.0
  outer loop
    vertex 79.25996014255564 118.76836172919435 0.9999999999999999
    vertex 79.55660639810544 118.20508245739924 1.9999999999999998
    vertex 79.55660639810544 118.20508245739924 0.9999999999999999
  endloop
endfacet
facet normal 0.8847994077702406 0.4659721107635432 0.0
  outer loop
    vertex 79.55660639810544 118.20508245739924 1.9999999999999998
    vertex 79.25996014255564 118.76836172919435 0.9999999999999999
    vertex 79.25996014255564 118.76836172919435 1.9999999999999998
  endloop
endfacet
facet normal 0.0 0.0 1.0
  outer loop
    vertex 99.03829957234376 109.97836399937732 9.999999999999998
    vertex 86.03829957234382 133.9783639993773 9.999999999999998
    vertex 86.03829957234382 109.97836399937732 9.999999999999998
  endloop
endfacet
facet normal 0.0 0.0 1.0
  outer loop
    vertex 86.03829957234382 133.9783639993773 9.999999999999998
    vertex 99.03829957234376 109.97836399937732 9.999999999999998
    vertex 99.03829957234376 133.9783639993773 9.999999999999998
  endloop
endfacet
facet normal 0.961210539663885 -0.27581569650595084 0.0
  outer loop
    vertex 78.92351077387025 124.35107981740438 0.9999999999999999
    vertex 78.7479215235688 123.73915583998206 1.9999999999999998
    vertex 78.7479215235688 123.73915583998206 0.9999999999999999
  endloop
endfacet
facet normal 0.961210539663885 -0.27581569650595084 0.0
  outer loop
    vertex 78.7479215235688 123.73915583998206 1.9999999999999998
    vertex 78.92351077387025 124.35107981740438 0.9999999999999999
    vertex 78.92351077387025 124.35107981740438 1.9999999999999998
  endloop
endfacet
facet normal 0.8420947121330774 0.5393296726469902 0.0
  outer loop
    vertex 79.55660639810544 118.20508245739924 0.9999999999999999
    vertex 79.89995340150328 117.66898976557863 1.9999999999999998
    vertex 79.89995340150328 117.66898976557863 0.9999999999999999
  endloop
endfacet
facet normal 0.8420947121330774 0.5393296726469902 0.0
  outer loop
    vertex 79.89995340150328 117.66898976557863 1.9999999999999998
    vertex 79.55660639810544 118.20508245739924 0.9999999999999999
    vertex 79.55660639810544 118.20508245739924 1.9999999999999998
  endloop
endfacet
facet normal 0.9811385728087428 -0.19330571886735093 0.0
  outer loop
    vertex 78.7479215235688 123.73915583998206 0.9999999999999999
    vertex 78.6248596141674 123.11454531699974 1.9999999999999998
    vertex 78.6248596141674 123.11454531699974 0.9999999999999999
  endloop
endfacet
facet normal 0.9811385728087428 -0.19330571886735093 0.0
  outer loop
    vertex 78.6248596141674 123.11454531699974 1.9999999999999998
    vertex 78.7479215235688 123.73915583998206 0.9999999999999999
    vertex 78.7479215235688 123.73915583998206 1.9999999999999998
  endloop
endfacet
facet normal -0.9612105396638898 0.2758156965059345 0.0
  outer loop
    vertex 93.32867762111871 120.21757215877258 1.9999999999999998
    vertex 93.15308837081727 119.60564818135026 0.9999999999999999
    vertex 93.15308837081727 119.60564818135026 1.9999999999999998
  endloop
endfacet
facet normal -0.9612105396638898 0.2758156965059345 0.0
  outer loop
    vertex 93.15308837081727 119.60564818135026 0.9999999999999999
    vertex 93.32867762111871 120.21757215877258 1.9999999999999998
    vertex 93.32867762111871 120.21757215877258 0.9999999999999999
  endloop
endfacet
facet normal -0.9996946126776276 0.024711968422776412 0.0
  outer loop
    vertex 93.53383085910829 121.97836399937732 1.9999999999999998
    vertex 93.52138743514425 121.47497941716624 0.9999999999999999
    vertex 93.52138743514425 121.47497941716624 1.9999999999999998
  endloop
endfacet
facet normal -0.9996946126776276 0.024711968422776412 0.0
  outer loop
    vertex 93.52138743514425 121.47497941716624 0.9999999999999999
    vertex 93.53383085910829 121.97836399937732 1.9999999999999998
    vertex 93.53383085910829 121.97836399937732 0.9999999999999999
  endloop
endfacet
facet normal 0.15149084234965854 0.9884586610901798 0.0
  outer loop
    vertex 84.5885066808387 114.61982470331172 1.9999999999999998
    vertex 85.21777730413352 114.52338289897398 0.9999999999999999
    vertex 84.5885066808387 114.61982470331172 0.9999999999999999
  endloop
endfacet
facet normal 0.15149084234965854 0.9884586610901798 0.0
  outer loop
    vertex 85.21777730413352 114.52338289897398 0.9999999999999999
    vertex 84.5885066808387 114.61982470331172 1.9999999999999998
    vertex 85.21777730413352 114.52338289897398 1.9999999999999998
  endloop
endfacet
facet normal 0.0 -1.0 0.0
  outer loop
    vertex 99.03829957234376 109.97836399937732 0.9999999999999999
    vertex 98.03829957234376 109.97836399937732 1.9999999999999998
    vertex 74.03829957234376 109.97836399937732 0.9999999999999999
  endloop
endfacet
facet normal 0.0 -1.0 0.0
  outer loop
    vertex 98.03829957234376 109.97836399937732 1.9999999999999998
    vertex 99.03829957234376 109.97836399937732 0.9999999999999999
    vertex 99.03829957234376 109.97836399937732 9.999999999999998
  endloop
endfacet
facet normal 0.0 -1.0 0.0
  outer loop
    vertex 98.03829957234376 109.97836399937732 1.9999999999999998
    vertex 99.03829957234376 109.97836399937732 9.999999999999998
    vertex 98.03829957234376 109.97836399937732 8.999999999999998
  endloop
endfacet
facet normal 0.0 -1.0 0.0
  outer loop
    vertex 98.03829957234376 109.97836399937732 8.999999999999998
    vertex 99.03829957234376 109.97836399937732 9.999999999999998
    vertex 86.03829957234382 109.97836399937732 8.999999999999998
  endloop
endfacet
facet normal 0.0 -1.0 0.0
  outer loop
    vertex 86.03829957234382 109.97836399937732 8.999999999999998
    vertex 99.03829957234376 109.97836399937732 9.999999999999998
    vertex 86.03829957234382 109.97836399937732 9.999999999999998
  endloop
endfacet
facet normal 0.0 -1.0 0.0
  outer loop
    vertex 74.03829957234376 109.97836399937732 1.9999999999999998
    vertex 74.03829957234376 109.97836399937732 0.9999999999999999
    vertex 98.03829957234376 109.97836399937732 1.9999999999999998
  endloop
endfacet
facet normal -0.9894912586791748 -0.14459270036036664 -0.0
  outer loop
    vertex 93.4067721131307 123.37679612703631 1.9999999999999998
    vertex 93.49882243578081 122.74686813348008 0.9999999999999999
    vertex 93.49882243578081 122.74686813348008 1.9999999999999998
  endloop
endfacet
facet normal -0.9894912586791748 -0.14459270036036664 -0.0
  outer loop
    vertex 93.49882243578081 122.74686813348008 0.9999999999999999
    vertex 93.4067721131307 123.37679612703631 1.9999999999999998
    vertex 93.4067721131307 123.37679612703631 0.9999999999999999
  endloop
endfacet
facet normal 0.472132213911979 0.881527749186929 0.0
  outer loop
    vertex 82.21990028366118 115.52314697187246 1.9999999999999998
    vertex 82.78109675855546 115.2225790834812 0.9999999999999999
    vertex 82.21990028366118 115.52314697187246 0.9999999999999999
  endloop
endfacet
facet normal 0.472132213911979 0.881527749186929 0.0
  outer loop
    vertex 82.78109675855546 115.2225790834812 0.9999999999999999
    vertex 82.21990028366118 115.52314697187246 1.9999999999999998
    vertex 82.78109675855546 115.2225790834812 1.9999999999999998
  endloop
endfacet
facet normal -0.8606956036673122 0.5091199051576762 0.0
  outer loop
    vertex 92.64975769124571 118.43737239503744 1.9999999999999998
    vertex 92.3256427710557 117.8894380399583 0.9999999999999999
    vertex 92.3256427710557 117.8894380399583 1.9999999999999998
  endloop
endfacet
facet normal -0.8606956036673122 0.5091199051576762 0.0
  outer loop
    vertex 92.3256427710557 117.8894380399583 0.9999999999999999
    vertex 92.64975769124571 118.43737239503744 1.9999999999999998
    vertex 92.64975769124571 118.43737239503744 0.9999999999999999
  endloop
endfacet
facet normal 0.9343569625546606 -0.35633841573092956 0.0
  outer loop
    vertex 79.15036224049969 124.94590832298715 0.9999999999999999
    vertex 78.92351077387025 124.35107981740438 1.9999999999999998
    vertex 78.92351077387025 124.35107981740438 0.9999999999999999
  endloop
endfacet
facet normal 0.9343569625546606 -0.35633841573092956 0.0
  outer loop
    vertex 78.92351077387025 124.35107981740438 1.9999999999999998
    vertex 79.15036224049969 124.94590832298715 0.9999999999999999
    vertex 79.15036224049969 124.94590832298715 1.9999999999999998
  endloop
endfacet
facet normal 0.8606956036673122 -0.5091199051576762 0.0
  outer loop
    vertex 79.75095637363182 126.06728995879634 0.9999999999999999
    vertex 79.42684145344181 125.5193556037172 1.9999999999999998
    vertex 79.42684145344181 125.5193556037172 0.9999999999999999
  endloop
endfacet
facet normal 0.8606956036673122 -0.5091199051576762 0.0
  outer loop
    vertex 79.42684145344181 125.5193556037172 1.9999999999999998
    vertex 79.75095637363182 126.06728995879634 0.9999999999999999
    vertex 79.75095637363182 126.06728995879634 1.9999999999999998
  endloop
endfacet
facet normal -0.017738540086670713 0.9998426597198149 0.0
  outer loop
    vertex 86.03829957234376 114.483942578476 1.9999999999999998
    vertex 86.4894776914532 114.49194707905842 0.9999999999999999
    vertex 86.03829957234376 114.483942578476 0.9999999999999999
  endloop
endfacet
facet normal -0.017738540086670713 0.9998426597198149 0.0
  outer loop
    vertex 86.4894776914532 114.49194707905842 0.9999999999999999
    vertex 86.03829957234376 114.483942578476 1.9999999999999998
    vertex 86.4894776914532 114.49194707905842 1.9999999999999998
  endloop
endfacet
facet normal -0.9811385728087428 0.19330571886735093 0.0
  outer loop
    vertex 93.45173953052011 120.8421826817549 1.9999999999999998
    vertex 93.32867762111871 120.21757215877258 0.9999999999999999
    vertex 93.32867762111871 120.21757215877258 1.9999999999999998
  endloop
endfacet
facet normal -0.9811385728087428 0.19330571886735093 0.0
  outer loop
    vertex 93.32867762111871 120.21757215877258 0.9999999999999999
    vertex 93.45173953052011 120.8421826817549 1.9999999999999998
    vertex 93.45173953052011 120.8421826817549 0.9999999999999999
  endloop
endfacet
facet normal -0.10246721788036897 0.9947363817916066 0.0
  outer loop
    vertex 86.4894776914532 114.49194707905842 1.9999999999999998
    vertex 87.1227448250465 114.55717955928351 0.9999999999999999
    vertex 86.4894776914532 114.49194707905842 0.9999999999999999
  endloop
endfacet
facet normal -0.10246721788036897 0.9947363817916066 0.0
  outer loop
    vertex 87.1227448250465 114.55717955928351 0.9999999999999999
    vertex 86.4894776914532 114.49194707905842 1.9999999999999998
    vertex 87.1227448250465 114.55717955928351 1.9999999999999998
  endloop
endfacet
facet normal 0.017738540086670713 -0.9998426597198149 0.0
  outer loop
    vertex 86.03829957234376 129.47278542027863 1.9999999999999998
    vertex 85.5871214532343 129.4647809196962 0.9999999999999999
    vertex 86.03829957234376 129.47278542027863 0.9999999999999999
  endloop
endfacet
facet normal 0.017738540086670713 -0.9998426597198149 0.0
  outer loop
    vertex 85.5871214532343 129.4647809196962 0.9999999999999999
    vertex 86.03829957234376 129.47278542027863 1.9999999999999998
    vertex 85.5871214532343 129.4647809196962 1.9999999999999998
  endloop
endfacet
facet normal 0.7388347891967807 0.6738866034226743 0.0
  outer loop
    vertex 80.28752732972193 117.16394621386159 0.9999999999999999
    vertex 80.71653570372727 116.69359065261133 1.9999999999999998
    vertex 80.71653570372727 116.69359065261133 0.9999999999999999
  endloop
endfacet
facet normal 0.7388347891967807 0.6738866034226743 0.0
  outer loop
    vertex 80.71653570372727 116.69359065261133 1.9999999999999998
    vertex 80.28752732972193 117.16394621386159 0.9999999999999999
    vertex 80.28752732972193 117.16394621386159 1.9999999999999998
  endloop
endfacet
facet normal 0.9211291033992908 0.38925720914431206 0.0
  outer loop
    vertex 79.01215197792274 119.35476914090322 0.9999999999999999
    vertex 79.25996014255564 118.76836172919435 1.9999999999999998
    vertex 79.25996014255564 118.76836172919435 0.9999999999999999
  endloop
endfacet
facet normal 0.9211291033992908 0.38925720914431206 0.0
  outer loop
    vertex 79.25996014255564 118.76836172919435 1.9999999999999998
    vertex 79.01215197792274 119.35476914090322 0.9999999999999999
    vertex 79.01215197792274 119.35476914090322 1.9999999999999998
  endloop
endfacet
facet normal 0.7933227047984359 0.6088013518803105 0.0
  outer loop
    vertex 79.89995340150328 117.66898976557863 0.9999999999999999
    vertex 80.28752732972193 117.16394621386159 1.9999999999999998
    vertex 80.28752732972193 117.16394621386159 0.9999999999999999
  endloop
endfacet
facet normal 0.7933227047984359 0.6088013518803105 0.0
  outer loop
    vertex 80.28752732972193 117.16394621386159 1.9999999999999998
    vertex 79.89995340150328 117.66898976557863 0.9999999999999999
    vertex 79.89995340150328 117.66898976557863 1.9999999999999998
  endloop
endfacet
facet normal 0.9996946126776283 -0.02471196842274735 0.0
  outer loop
    vertex 78.54276828557921 121.97836399937732 0.9999999999999999
    vertex 78.53947962444515 121.84532494872722 1.9999999999999998
    vertex 78.53947962444515 121.84532494872722 0.9999999999999999
  endloop
endfacet
facet normal 0.9996946126776283 -0.02471196842274735 0.0
  outer loop
    vertex 78.53947962444515 121.84532494872722 1.9999999999999998
    vertex 78.54276828557921 121.97836399937732 0.9999999999999999
    vertex 78.54276828557921 121.97836399937732 1.9999999999999998
  endloop
endfacet
facet normal -0.4280003026910611 0.9037785906384151 0.0
  outer loop
    vertex 88.95772864092612 115.06989572388265 1.9999999999999998
    vertex 89.53309040307032 115.3423684411005 0.9999999999999999
    vertex 88.95772864092612 115.06989572388265 0.9999999999999999
  endloop
endfacet
facet normal -0.4280003026910611 0.9037785906384151 0.0
  outer loop
    vertex 89.53309040307032 115.3423684411005 0.9999999999999999
    vertex 88.95772864092612 115.06989572388265 1.9999999999999998
    vertex 89.53309040307032 115.3423684411005 1.9999999999999998
  endloop
endfacet
facet normal 0.23477224541396255 0.9720504065033285 0.0
  outer loop
    vertex 83.96968184854911 114.7692849518982 1.9999999999999998
    vertex 84.5885066808387 114.61982470331172 0.9999999999999999
    vertex 83.96968184854911 114.7692849518982 0.9999999999999999
  endloop
endfacet
facet normal 0.23477224541396255 0.9720504065033285 0.0
  outer loop
    vertex 84.5885066808387 114.61982470331172 0.9999999999999999
    vertex 83.96968184854911 114.7692849518982 1.9999999999999998
    vertex 84.5885066808387 114.61982470331172 1.9999999999999998
  endloop
endfacet
facet normal -0.7622735993269902 0.6472549418653172 0.0
  outer loop
    vertex 91.95622739904483 117.3709644901143 1.9999999999999998
    vertex 91.54417322143357 116.88568735931287 0.9999999999999999
    vertex 91.54417322143357 116.88568735931287 1.9999999999999998
  endloop
endfacet
facet normal -0.7622735993269902 0.6472549418653172 0.0
  outer loop
    vertex 91.54417322143357 116.88568735931287 0.9999999999999999
    vertex 91.95622739904483 117.3709644901143 1.9999999999999998
    vertex 91.95622739904483 117.3709644901143 0.9999999999999999
  endloop
endfacet
facet normal 0.31636210907027945 0.9486385064631336 0.0
  outer loop
    vertex 83.36576145436173 114.97068678021739 1.9999999999999998
    vertex 83.96968184854911 114.7692849518982 0.9999999999999999
    vertex 83.36576145436173 114.97068678021739 0.9999999999999999
  endloop
endfacet
facet normal 0.31636210907027945 0.9486385064631336 0.0
  outer loop
    vertex 83.96968184854911 114.7692849518982 0.9999999999999999
    vertex 83.36576145436173 114.97068678021739 1.9999999999999998
    vertex 83.96968184854911 114.7692849518982 1.9999999999999998
  endloop
endfacet
facet normal 0.9508220427307188 0.3097377004134033 0.0
  outer loop
    vertex 78.81496736771145 119.96007961368687 0.9999999999999999
    vertex 79.01215197792274 119.35476914090322 1.9999999999999998
    vertex 79.01215197792274 119.35476914090322 0.9999999999999999
  endloop
endfacet
facet normal 0.9508220427307188 0.3097377004134033 0.0
  outer loop
    vertex 79.01215197792274 119.35476914090322 1.9999999999999998
    vertex 78.81496736771145 119.96007961368687 0.9999999999999999
    vertex 78.81496736771145 119.96007961368687 1.9999999999999998
  endloop
endfacet
facet normal 0.5451901279225376 0.8383124264949239 0.0
  outer loop
    vertex 81.68621546314027 115.8702248468679 1.9999999999999998
    vertex 82.21990028366118 115.52314697187246 0.9999999999999999
    vertex 81.68621546314027 115.8702248468679 0.9999999999999999
  endloop
endfacet
facet normal 0.5451901279225376 0.8383124264949239 0.0
  outer loop
    vertex 82.21990028366118 115.52314697187246 0.9999999999999999
    vertex 81.68621546314027 115.8702248468679 1.9999999999999998
    vertex 82.21990028366118 115.52314697187246 1.9999999999999998
  endloop
endfacet
facet normal -0.574583231173156 0.8184461561120655 0.0
  outer loop
    vertex 90.08327211719619 115.66265365837924 1.9999999999999998
    vertex 90.60430971144606 116.02844371338905 0.9999999999999999
    vertex 90.08327211719619 115.66265365837924 0.9999999999999999
  endloop
endfacet
facet normal -0.574583231173156 0.8184461561120655 0.0
  outer loop
    vertex 90.60430971144606 116.02844371338905 0.9999999999999999
    vertex 90.08327211719619 115.66265365837924 1.9999999999999998
    vertex 90.60430971144606 116.02844371338905 1.9999999999999998
  endloop
endfacet
facet normal -0.6419223714021035 0.7667696323495734 0.0
  outer loop
    vertex 90.60430971144606 116.02844371338905 1.9999999999999998
    vertex 91.09244909801383 116.4371030804015 0.9999999999999999
    vertex 90.60430971144606 116.02844371338905 0.9999999999999999
  endloop
endfacet
facet normal -0.6419223714021035 0.7667696323495734 0.0
  outer loop
    vertex 91.09244909801383 116.4371030804015 0.9999999999999999
    vertex 90.60430971144606 116.02844371338905 1.9999999999999998
    vertex 91.09244909801383 116.4371030804015 1.9999999999999998
  endloop
endfacet
facet normal -0.5031042055970827 0.8642257565651053 0.0
  outer loop
    vertex 89.53309040307032 115.3423684411005 1.9999999999999998
    vertex 90.08327211719619 115.66265365837924 0.9999999999999999
    vertex 89.53309040307032 115.3423684411005 0.9999999999999999
  endloop
endfacet
facet normal -0.5031042055970827 0.8642257565651053 0.0
  outer loop
    vertex 90.08327211719619 115.66265365837924 0.9999999999999999
    vertex 89.53309040307032 115.3423684411005 1.9999999999999998
    vertex 90.08327211719619 115.66265365837924 1.9999999999999998
  endloop
endfacet
facet normal -0.23477224541396663 -0.9720504065033276 -0.0
  outer loop
    vertex 88.10691729613839 129.18744304685646 1.9999999999999998
    vertex 87.4880924638488 129.3369032954429 0.9999999999999999
    vertex 88.10691729613839 129.18744304685646 0.9999999999999999
  endloop
endfacet
facet normal -0.23477224541396663 -0.9720504065033276 -0.0
  outer loop
    vertex 87.4880924638488 129.3369032954429 0.9999999999999999
    vertex 88.10691729613839 129.18744304685646 1.9999999999999998
    vertex 87.4880924638488 129.3369032954429 1.9999999999999998
  endloop
endfacet
facet normal 0.9996946126776276 -0.024711968422776412 0.0
  outer loop
    vertex 78.55521170954326 122.4817485815884 0.9999999999999999
    vertex 78.54276828557921 121.97836399937732 1.9999999999999998
    vertex 78.54276828557921 121.97836399937732 0.9999999999999999
  endloop
endfacet
facet normal 0.9996946126776276 -0.024711968422776412 0.0
  outer loop
    vertex 78.54276828557921 121.97836399937732 1.9999999999999998
    vertex 78.55521170954326 122.4817485815884 0.9999999999999999
    vertex 78.55521170954326 122.4817485815884 1.9999999999999998
  endloop
endfacet
facet normal -0.3163621090702742 -0.9486385064631354 -0.0
  outer loop
    vertex 88.71083769032577 128.98604121853725 1.9999999999999998
    vertex 88.10691729613839 129.18744304685646 0.9999999999999999
    vertex 88.71083769032577 128.98604121853725 0.9999999999999999
  endloop
endfacet
facet normal -0.3163621090702742 -0.9486385064631354 -0.0
  outer loop
    vertex 88.10691729613839 129.18744304685646 0.9999999999999999
    vertex 88.71083769032577 128.98604121853725 1.9999999999999998
    vertex 88.10691729613839 129.18744304685646 1.9999999999999998
  endloop
endfacet
facet normal -0.9211291033992882 -0.38925720914431844 -0.0
  outer loop
    vertex 92.81663900213188 125.18836626956028 1.9999999999999998
    vertex 93.06444716676477 124.60195885785143 0.9999999999999999
    vertex 93.06444716676477 124.60195885785143 1.9999999999999998
  endloop
endfacet
facet normal -0.9211291033992882 -0.38925720914431844 -0.0
  outer loop
    vertex 93.06444716676477 124.60195885785143 0.9999999999999999
    vertex 92.81663900213188 125.18836626956028 1.9999999999999998
    vertex 92.81663900213188 125.18836626956028 0.9999999999999999
  endloop
endfacet
facet normal -0.8144185536679246 0.580277881227129 0.0
  outer loop
    vertex 92.3256427710557 117.8894380399583 1.9999999999999998
    vertex 91.95622739904483 117.3709644901143 0.9999999999999999
    vertex 91.95622739904483 117.3709644901143 1.9999999999999998
  endloop
endfacet
facet normal -0.8144185536679246 0.580277881227129 0.0
  outer loop
    vertex 91.95622739904483 117.3709644901143 0.9999999999999999
    vertex 92.3256427710557 117.8894380399583 1.9999999999999998
    vertex 92.3256427710557 117.8894380399583 0.9999999999999999
  endloop
endfacet
facet normal -0.9343569625546547 0.35633841573094505 0.0
  outer loop
    vertex 93.15308837081727 119.60564818135026 1.9999999999999998
    vertex 92.92623690418782 119.01081967576748 0.9999999999999999
    vertex 92.92623690418782 119.01081967576748 1.9999999999999998
  endloop
endfacet
facet normal -0.9343569625546547 0.35633841573094505 0.0
  outer loop
    vertex 92.92623690418782 119.01081967576748 0.9999999999999999
    vertex 93.15308837081727 119.60564818135026 1.9999999999999998
    vertex 93.15308837081727 119.60564818135026 0.9999999999999999
  endloop
endfacet
facet normal -0.7046364462354686 0.7095685158155269 0.0
  outer loop
    vertex 91.09244909801383 116.4371030804015 1.9999999999999998
    vertex 91.54417322143357 116.88568735931287 0.9999999999999999
    vertex 91.09244909801383 116.4371030804015 0.9999999999999999
  endloop
endfacet
facet normal -0.7046364462354686 0.7095685158155269 0.0
  outer loop
    vertex 91.54417322143357 116.88568735931287 0.9999999999999999
    vertex 91.09244909801383 116.4371030804015 1.9999999999999998
    vertex 91.54417322143357 116.88568735931287 1.9999999999999998
  endloop
endfacet
facet normal -0.7388347891967807 -0.6738866034226743 -0.0
  outer loop
    vertex 91.36006344096023 127.26313734614331 1.9999999999999998
    vertex 91.7890718149656 126.79278178489305 0.9999999999999999
    vertex 91.7890718149656 126.79278178489305 1.9999999999999998
  endloop
endfacet
facet normal -0.7388347891967807 -0.6738866034226743 -0.0
  outer loop
    vertex 91.7890718149656 126.79278178489305 0.9999999999999999
    vertex 91.36006344096023 127.26313734614331 1.9999999999999998
    vertex 91.36006344096023 127.26313734614331 0.9999999999999999
  endloop
endfacet
facet normal -0.1864576170212011 0.9824630054382584 0.0
  outer loop
    vertex 87.1227448250465 114.55717955928351 1.9999999999999998
    vertex 87.74819850574404 114.6758818434555 0.9999999999999999
    vertex 87.1227448250465 114.55717955928351 0.9999999999999999
  endloop
endfacet
facet normal -0.1864576170212011 0.9824630054382584 0.0
  outer loop
    vertex 87.74819850574404 114.6758818434555 0.9999999999999999
    vertex 87.1227448250465 114.55717955928351 1.9999999999999998
    vertex 87.74819850574404 114.6758818434555 1.9999999999999998
  endloop
endfacet
facet normal 0.10246721788036718 -0.994736381791607 0.0
  outer loop
    vertex 85.5871214532343 129.4647809196962 1.9999999999999998
    vertex 84.95385431964101 129.39954843947115 0.9999999999999999
    vertex 85.5871214532343 129.4647809196962 0.9999999999999999
  endloop
endfacet
facet normal 0.10246721788036718 -0.994736381791607 0.0
  outer loop
    vertex 84.95385431964101 129.39954843947115 0.9999999999999999
    vertex 85.5871214532343 129.4647809196962 1.9999999999999998
    vertex 84.95385431964101 129.39954843947115 1.9999999999999998
  endloop
endfacet
facet normal 0.06711794429481932 0.9977450483733996 0.0
  outer loop
    vertex 85.21777730413352 114.52338289897398 1.9999999999999998
    vertex 85.85295980917302 114.48065440429511 0.9999999999999999
    vertex 85.21777730413352 114.52338289897398 0.9999999999999999
  endloop
endfacet
facet normal 0.06711794429481932 0.9977450483733996 0.0
  outer loop
    vertex 85.85295980917302 114.48065440429511 0.9999999999999999
    vertex 85.21777730413352 114.52338289897398 1.9999999999999998
    vertex 85.85295980917302 114.48065440429511 1.9999999999999998
  endloop
endfacet
facet normal -0.9508220427307205 -0.3097377004133981 -0.0
  outer loop
    vertex 93.06444716676477 124.60195885785143 1.9999999999999998
    vertex 93.26163177697606 123.99664838506777 0.9999999999999999
    vertex 93.26163177697606 123.99664838506777 1.9999999999999998
  endloop
endfacet
facet normal -0.9508220427307205 -0.3097377004133981 -0.0
  outer loop
    vertex 93.26163177697606 123.99664838506777 0.9999999999999999
    vertex 93.06444716676477 124.60195885785143 1.9999999999999998
    vertex 93.06444716676477 124.60195885785143 0.9999999999999999
  endloop
endfacet
facet normal -0.6143199345684034 -0.7890570435601424 -0.0
  outer loop
    vertex 90.89271163633356 127.69541599432982 1.9999999999999998
    vertex 90.39038368154723 128.08650315188675 0.9999999999999999
    vertex 90.89271163633356 127.69541599432982 0.9999999999999999
  endloop
endfacet
facet normal -0.6143199345684034 -0.7890570435601424 -0.0
  outer loop
    vertex 90.39038368154723 128.08650315188675 0.9999999999999999
    vertex 90.89271163633356 127.69541599432982 1.9999999999999998
    vertex 90.39038368154723 128.08650315188675 1.9999999999999998
  endloop
endfacet
facet normal 0.0 0.0 -1.0
  outer loop
    vertex 74.03829957234376 133.9783639993773 0.9999999999999999
    vertex 78.92351077387025 124.35107981740438 0.9999999999999999
    vertex 74.03829957234376 109.97836399937732 0.9999999999999999
  endloop
endfacet
facet normal 0.0 0.0 -1.0
  outer loop
    vertex 78.92351077387025 124.35107981740438 0.9999999999999999
    vertex 74.03829957234376 133.9783639993773 0.9999999999999999
    vertex 79.15036224049969 124.94590832298715 0.9999999999999999
  endloop
endfacet
facet normal 0.0 0.0 -1.0
  outer loop
    vertex 79.15036224049969 124.94590832298715 0.9999999999999999
    vertex 74.03829957234376 133.9783639993773 0.9999999999999999
    vertex 79.42684145344181 125.5193556037172 0.9999999999999999
  endloop
endfacet
facet normal 0.0 0.0 -1.0
  outer loop
    vertex 79.42684145344181 125.5193556037172 0.9999999999999999
    vertex 74.03829957234376 133.9783639993773 0.9999999999999999
    vertex 79.75095637363182 126.06728995879634 0.9999999999999999
  endloop
endfacet
facet normal 0.0 0.0 -1.0
  outer loop
    vertex 79.75095637363182 126.06728995879634 0.9999999999999999
    vertex 74.03829957234376 133.9783639993773 0.9999999999999999
    vertex 80.12037174564269 126.58576350864034 0.9999999999999999
  endloop
endfacet
facet normal 0.0 0.0 -1.0
  outer loop
    vertex 80.12037174564269 126.58576350864034 0.9999999999999999
    vertex 74.03829957234376 133.9783639993773 0.9999999999999999
    vertex 80.53242592325392 127.07104063944178 0.9999999999999999
  endloop
endfacet
facet normal 0.0 0.0 -1.0
  outer loop
    vertex 80.53242592325392 127.07104063944178 0.9999999999999999
    vertex 74.03829957234376 133.9783639993773 0.9999999999999999
    vertex 80.98415004667368 127.51962491835314 0.9999999999999999
  endloop
endfacet
facet normal 0.0 0.0 -1.0
  outer loop
    vertex 80.98415004667368 127.51962491835314 0.9999999999999999
    vertex 74.03829957234376 133.9783639993773 0.9999999999999999
    vertex 81.47228943324144 127.92828428536559 0.9999999999999999
  endloop
endfacet
facet normal 0.0 0.0 -1.0
  outer loop
    vertex 81.47228943324144 127.92828428536559 0.9999999999999999
    vertex 74.03829957234376 133.9783639993773 0.9999999999999999
    vertex 81.99332702749132 128.2940743403754 0.9999999999999999
  endloop
endfacet
facet normal 0.0 0.0 -1.0
  outer loop
    vertex 81.99332702749132 128.2940743403754 0.9999999999999999
    vertex 74.03829957234376 133.9783639993773 0.9999999999999999
    vertex 82.5435087416172 128.61435955765413 0.9999999999999999
  endloop
endfacet
facet normal 0.0 0.0 -1.0
  outer loop
    vertex 82.5435087416172 128.61435955765413 0.9999999999999999
    vertex 74.03829957234376 133.9783639993773 0.9999999999999999
    vertex 83.1188705037614 128.886832274872 0.9999999999999999
  endloop
endfacet
facet normal 0.0 0.0 -1.0
  outer loop
    vertex 83.1188705037614 128.886832274872 0.9999999999999999
    vertex 74.03829957234376 133.9783639993773 0.9999999999999999
    vertex 83.7152668192433 129.10952931985773 0.9999999999999999
  endloop
endfacet
facet normal 0.0 0.0 -1.0
  outer loop
    vertex 83.7152668192433 129.10952931985773 0.9999999999999999
    vertex 74.03829957234376 133.9783639993773 0.9999999999999999
    vertex 99.03829957234376 133.9783639993773 0.9999999999999999
  endloop
endfacet
facet normal 0.0 0.0 -1.0
  outer loop
    vertex 74.03829957234376 109.97836399937732 0.9999999999999999
    vertex 78.92351077387025 124.35107981740438 0.9999999999999999
    vertex 78.7479215235688 123.73915583998206 0.9999999999999999
  endloop
endfacet
facet normal 0.0 0.0 -1.0
  outer loop
    vertex 74.03829957234376 109.97836399937732 0.9999999999999999
    vertex 78.7479215235688 123.73915583998206 0.9999999999999999
    vertex 78.6248596141674 123.11454531699974 0.9999999999999999
  endloop
endfacet
facet normal 0.0 0.0 -1.0
  outer loop
    vertex 74.03829957234376 109.97836399937732 0.9999999999999999
    vertex 78.6248596141674 123.11454531699974 0.9999999999999999
    vertex 78.55521170954326 122.4817485815884 0.9999999999999999
  endloop
endfacet
facet normal 0.0 0.0 -1.0
  outer loop
    vertex 74.03829957234376 109.97836399937732 0.9999999999999999
    vertex 78.55521170954326 122.4817485815884 0.9999999999999999
    vertex 78.54276828557921 121.97836399937732 0.9999999999999999
  endloop
endfacet
facet normal 0.0 0.0 -1.0
  outer loop
    vertex 74.03829957234376 109.97836399937732 0.9999999999999999
    vertex 78.54276828557921 121.97836399937732 0.9999999999999999
    vertex 78.53947962444515 121.84532494872722 0.9999999999999999
  endloop
endfacet
facet normal 0.0 0.0 -1.0
  outer loop
    vertex 83.7152668192433 129.10952931985773 0.9999999999999999
    vertex 99.03829957234376 133.9783639993773 0.9999999999999999
    vertex 84.32840063894346 129.28084615529914 0.9999999999999999
  endloop
endfacet
facet normal 0.0 0.0 -1.0
  outer loop
    vertex 84.32840063894346 129.28084615529914 0.9999999999999999
    vertex 99.03829957234376 133.9783639993773 0.9999999999999999
    vertex 84.95385431964101 129.39954843947115 0.9999999999999999
  endloop
endfacet
facet normal 0.0 0.0 -1.0
  outer loop
    vertex 84.95385431964101 129.39954843947115 0.9999999999999999
    vertex 99.03829957234376 133.9783639993773 0.9999999999999999
    vertex 85.5871214532343 129.4647809196962 0.9999999999999999
  endloop
endfacet
facet normal 0.0 0.0 -1.0
  outer loop
    vertex 85.5871214532343 129.4647809196962 0.9999999999999999
    vertex 99.03829957234376 133.9783639993773 0.9999999999999999
    vertex 86.03829957234376 129.47278542027863 0.9999999999999999
  endloop
endfacet
facet normal 0.0 0.0 -1.0
  outer loop
    vertex 86.03829957234376 129.47278542027863 0.9999999999999999
    vertex 99.03829957234376 133.9783639993773 0.9999999999999999
    vertex 86.22363933551449 129.47607359445954 0.9999999999999999
  endloop
endfacet
facet normal 0.0 0.0 -1.0
  outer loop
    vertex 86.22363933551449 129.47607359445954 0.9999999999999999
    vertex 99.03829957234376 133.9783639993773 0.9999999999999999
    vertex 86.85882184055399 129.43334509978067 0.9999999999999999
  endloop
endfacet
facet normal 0.0 0.0 -1.0
  outer loop
    vertex 86.85882184055399 129.43334509978067 0.9999999999999999
    vertex 99.03829957234376 133.9783639993773 0.9999999999999999
    vertex 87.4880924638488 129.3369032954429 0.9999999999999999
  endloop
endfacet
facet normal 0.0 0.0 -1.0
  outer loop
    vertex 87.4880924638488 129.3369032954429 0.9999999999999999
    vertex 99.03829957234376 133.9783639993773 0.9999999999999999
    vertex 88.10691729613839 129.18744304685646 0.9999999999999999
  endloop
endfacet
facet normal 0.0 0.0 -1.0
  outer loop
    vertex 88.10691729613839 129.18744304685646 0.9999999999999999
    vertex 99.03829957234376 133.9783639993773 0.9999999999999999
    vertex 88.71083769032577 128.98604121853725 0.9999999999999999
  endloop
endfacet
facet normal 0.0 0.0 -1.0
  outer loop
    vertex 88.71083769032577 128.98604121853725 0.9999999999999999
    vertex 99.03829957234376 133.9783639993773 0.9999999999999999
    vertex 89.29550238613204 128.73414891527347 0.9999999999999999
  endloop
endfacet
facet normal 0.0 0.0 -1.0
  outer loop
    vertex 89.29550238613204 128.73414891527347 0.9999999999999999
    vertex 99.03829957234376 133.9783639993773 0.9999999999999999
    vertex 89.85669886102632 128.43358102688217 0.9999999999999999
  endloop
endfacet
facet normal 0.0 0.0 -1.0
  outer loop
    vertex 89.85669886102632 128.43358102688217 0.9999999999999999
    vertex 99.03829957234376 133.9783639993773 0.9999999999999999
    vertex 90.39038368154723 128.08650315188675 0.9999999999999999
  endloop
endfacet
facet normal 0.0 0.0 -1.0
  outer loop
    vertex 90.39038368154723 128.08650315188675 0.9999999999999999
    vertex 99.03829957234376 133.9783639993773 0.9999999999999999
    vertex 90.89271163633356 127.69541599432982 0.9999999999999999
  endloop
endfacet
facet normal 0.0 0.0 -1.0
  outer loop
    vertex 90.89271163633356 127.69541599432982 0.9999999999999999
    vertex 99.03829957234376 133.9783639993773 0.9999999999999999
    vertex 91.36006344096023 127.26313734614331 0.9999999999999999
  endloop
endfacet
facet normal 0.0 0.0 -1.0
  outer loop
    vertex 91.36006344096023 127.26313734614331 0.9999999999999999
    vertex 99.03829957234376 133.9783639993773 0.9999999999999999
    vertex 91.7890718149656 126.79278178489305 0.9999999999999999
  endloop
endfacet
facet normal 0.0 0.0 -1.0
  outer loop
    vertex 91.7890718149656 126.79278178489305 0.9999999999999999
    vertex 99.03829957234376 133.9783639993773 0.9999999999999999
    vertex 92.17664574318422 126.28773823317604 0.9999999999999999
  endloop
endfacet
facet normal 0.0 0.0 -1.0
  outer loop
    vertex 92.17664574318422 126.28773823317604 0.9999999999999999
    vertex 99.03829957234376 133.9783639993773 0.9999999999999999
    vertex 92.51999274658208 125.7516455413554 0.9999999999999999
  endloop
endfacet
facet normal 0.0 0.0 -1.0
  outer loop
    vertex 92.51999274658208 125.7516455413554 0.9999999999999999
    vertex 99.03829957234376 133.9783639993773 0.9999999999999999
    vertex 92.81663900213188 125.18836626956028 0.9999999999999999
  endloop
endfacet
facet normal 0.0 0.0 -1.0
  outer loop
    vertex 92.81663900213188 125.18836626956028 0.9999999999999999
    vertex 99.03829957234376 133.9783639993773 0.9999999999999999
    vertex 93.06444716676477 124.60195885785143 0.9999999999999999
  endloop
endfacet
facet normal 0.0 0.0 -1.0
  outer loop
    vertex 93.06444716676477 124.60195885785143 0.9999999999999999
    vertex 99.03829957234376 133.9783639993773 0.9999999999999999
    vertex 93.26163177697606 123.99664838506777 0.9999999999999999
  endloop
endfacet
facet normal 0.0 0.0 -1.0
  outer loop
    vertex 93.26163177697606 123.99664838506777 0.9999999999999999
    vertex 99.03829957234376 133.9783639993773 0.9999999999999999
    vertex 93.4067721131307 123.37679612703631 0.9999999999999999
  endloop
endfacet
facet normal 0.0 0.0 -1.0
  outer loop
    vertex 93.4067721131307 123.37679612703631 0.9999999999999999
    vertex 99.03829957234376 133.9783639993773 0.9999999999999999
    vertex 93.49882243578081 122.74686813348008 0.9999999999999999
  endloop
endfacet
facet normal 0.0 0.0 -1.0
  outer loop
    vertex 93.49882243578081 122.74686813348008 0.9999999999999999
    vertex 99.03829957234376 133.9783639993773 0.9999999999999999
    vertex 93.53711952024237 122.11140305002742 0.9999999999999999
  endloop
endfacet
facet normal 0.0 0.0 -1.0
  outer loop
    vertex 74.03829957234376 109.97836399937732 0.9999999999999999
    vertex 83.96968184854911 114.7692849518982 0.9999999999999999
    vertex 99.03829957234376 109.97836399937732 0.9999999999999999
  endloop
endfacet
facet normal 0.0 0.0 -1.0
  outer loop
    vertex 83.96968184854911 114.7692849518982 0.9999999999999999
    vertex 74.03829957234376 109.97836399937732 0.9999999999999999
    vertex 83.36576145436173 114.97068678021739 0.9999999999999999
  endloop
endfacet
facet normal 0.0 0.0 -1.0
  outer loop
    vertex 83.36576145436173 114.97068678021739 0.9999999999999999
    vertex 74.03829957234376 109.97836399937732 0.9999999999999999
    vertex 82.78109675855546 115.2225790834812 0.9999999999999999
  endloop
endfacet
facet normal 0.0 0.0 -1.0
  outer loop
    vertex 82.78109675855546 115.2225790834812 0.9999999999999999
    vertex 74.03829957234376 109.97836399937732 0.9999999999999999
    vertex 82.21990028366118 115.52314697187246 0.9999999999999999
  endloop
endfacet
facet normal 0.0 0.0 -1.0
  outer loop
    vertex 82.21990028366118 115.52314697187246 0.9999999999999999
    vertex 74.03829957234376 109.97836399937732 0.9999999999999999
    vertex 81.68621546314027 115.8702248468679 0.9999999999999999
  endloop
endfacet
facet normal 0.0 0.0 -1.0
  outer loop
    vertex 81.68621546314027 115.8702248468679 0.9999999999999999
    vertex 74.03829957234376 109.97836399937732 0.9999999999999999
    vertex 81.18388750835395 116.26131200442482 0.9999999999999999
  endloop
endfacet
facet normal 0.0 0.0 -1.0
  outer loop
    vertex 81.18388750835395 116.26131200442482 0.9999999999999999
    vertex 74.03829957234376 109.97836399937732 0.9999999999999999
    vertex 80.71653570372727 116.69359065261133 0.9999999999999999
  endloop
endfacet
facet normal 0.0 0.0 -1.0
  outer loop
    vertex 80.71653570372727 116.69359065261133 0.9999999999999999
    vertex 74.03829957234376 109.97836399937732 0.9999999999999999
    vertex 80.28752732972193 117.16394621386159 0.9999999999999999
  endloop
endfacet
facet normal 0.0 0.0 -1.0
  outer loop
    vertex 80.28752732972193 117.16394621386159 0.9999999999999999
    vertex 74.03829957234376 109.97836399937732 0.9999999999999999
    vertex 79.89995340150328 117.66898976557863 0.9999999999999999
  endloop
endfacet
facet normal 0.0 0.0 -1.0
  outer loop
    vertex 79.89995340150328 117.66898976557863 0.9999999999999999
    vertex 74.03829957234376 109.97836399937732 0.9999999999999999
    vertex 79.55660639810544 118.20508245739924 0.9999999999999999
  endloop
endfacet
facet normal 0.0 0.0 -1.0
  outer loop
    vertex 79.55660639810544 118.20508245739924 0.9999999999999999
    vertex 74.03829957234376 109.97836399937732 0.9999999999999999
    vertex 79.25996014255564 118.76836172919435 0.9999999999999999
  endloop
endfacet
facet normal 0.0 0.0 -1.0
  outer loop
    vertex 79.25996014255564 118.76836172919435 0.9999999999999999
    vertex 74.03829957234376 109.97836399937732 0.9999999999999999
    vertex 79.01215197792274 119.35476914090322 0.9999999999999999
  endloop
endfacet
facet normal 0.0 0.0 -1.0
  outer loop
    vertex 79.01215197792274 119.35476914090322 0.9999999999999999
    vertex 74.03829957234376 109.97836399937732 0.9999999999999999
    vertex 78.81496736771145 119.96007961368687 0.9999999999999999
  endloop
endfacet
facet normal 0.0 0.0 -1.0
  outer loop
    vertex 78.81496736771145 119.96007961368687 0.9999999999999999
    vertex 74.03829957234376 109.97836399937732 0.9999999999999999
    vertex 78.66982703155682 120.57993187171833 0.9999999999999999
  endloop
endfacet
facet normal 0.0 0.0 -1.0
  outer loop
    vertex 78.66982703155682 120.57993187171833 0.9999999999999999
    vertex 74.03829957234376 109.97836399937732 0.9999999999999999
    vertex 78.5777767089067 121.20985986527457 0.9999999999999999
  endloop
endfacet
facet normal 0.0 0.0 -1.0
  outer loop
    vertex 78.5777767089067 121.20985986527457 0.9999999999999999
    vertex 74.03829957234376 109.97836399937732 0.9999999999999999
    vertex 78.53947962444515 121.84532494872722 0.9999999999999999
  endloop
endfacet
facet normal 0.0 0.0 -1.0
  outer loop
    vertex 99.03829957234376 109.97836399937732 0.9999999999999999
    vertex 83.96968184854911 114.7692849518982 0.9999999999999999
    vertex 84.5885066808387 114.61982470331172 0.9999999999999999
  endloop
endfacet
facet normal 0.0 0.0 -1.0
  outer loop
    vertex 99.03829957234376 109.97836399937732 0.9999999999999999
    vertex 84.5885066808387 114.61982470331172 0.9999999999999999
    vertex 85.21777730413352 114.52338289897398 0.9999999999999999
  endloop
endfacet
facet normal 0.0 0.0 -1.0
  outer loop
    vertex 99.03829957234376 109.97836399937732 0.9999999999999999
    vertex 85.21777730413352 114.52338289897398 0.9999999999999999
    vertex 85.85295980917302 114.48065440429511 0.9999999999999999
  endloop
endfacet
facet normal 0.0 0.0 -1.0
  outer loop
    vertex 99.03829957234376 109.97836399937732 0.9999999999999999
    vertex 85.85295980917302 114.48065440429511 0.9999999999999999
    vertex 86.03829957234376 114.483942578476 0.9999999999999999
  endloop
endfacet
facet normal 0.0 0.0 -1.0
  outer loop
    vertex 99.03829957234376 109.97836399937732 0.9999999999999999
    vertex 86.03829957234376 114.483942578476 0.9999999999999999
    vertex 86.4894776914532 114.49194707905842 0.9999999999999999
  endloop
endfacet
facet normal 0.0 0.0 -1.0
  outer loop
    vertex 99.03829957234376 109.97836399937732 0.9999999999999999
    vertex 86.4894776914532 114.49194707905842 0.9999999999999999
    vertex 87.1227448250465 114.55717955928351 0.9999999999999999
  endloop
endfacet
facet normal 0.0 0.0 -1.0
  outer loop
    vertex 99.03829957234376 109.97836399937732 0.9999999999999999
    vertex 87.1227448250465 114.55717955928351 0.9999999999999999
    vertex 87.74819850574404 114.6758818434555 0.9999999999999999
  endloop
endfacet
facet normal 0.0 0.0 -1.0
  outer loop
    vertex 99.03829957234376 109.97836399937732 0.9999999999999999
    vertex 87.74819850574404 114.6758818434555 0.9999999999999999
    vertex 88.36133232544421 114.8471986788969 0.9999999999999999
  endloop
endfacet
facet normal 0.0 0.0 -1.0
  outer loop
    vertex 99.03829957234376 109.97836399937732 0.9999999999999999
    vertex 88.36133232544421 114.8471986788969 0.9999999999999999
    vertex 88.95772864092612 115.06989572388265 0.9999999999999999
  endloop
endfacet
facet normal 0.0 0.0 -1.0
  outer loop
    vertex 99.03829957234376 109.97836399937732 0.9999999999999999
    vertex 88.95772864092612 115.06989572388265 0.9999999999999999
    vertex 89.53309040307032 115.3423684411005 0.9999999999999999
  endloop
endfacet
facet normal 0.0 0.0 -1.0
  outer loop
    vertex 99.03829957234376 109.97836399937732 0.9999999999999999
    vertex 89.53309040307032 115.3423684411005 0.9999999999999999
    vertex 90.08327211719619 115.66265365837924 0.9999999999999999
  endloop
endfacet
facet normal 0.0 0.0 -1.0
  outer loop
    vertex 99.03829957234376 109.97836399937732 0.9999999999999999
    vertex 90.08327211719619 115.66265365837924 0.9999999999999999
    vertex 90.60430971144606 116.02844371338905 0.9999999999999999
  endloop
endfacet
facet normal 0.0 0.0 -1.0
  outer loop
    vertex 99.03829957234376 109.97836399937732 0.9999999999999999
    vertex 90.60430971144606 116.02844371338905 0.9999999999999999
    vertex 91.09244909801383 116.4371030804015 0.9999999999999999
  endloop
endfacet
facet normal 0.0 0.0 -1.0
  outer loop
    vertex 99.03829957234376 109.97836399937732 0.9999999999999999
    vertex 91.09244909801383 116.4371030804015 0.9999999999999999
    vertex 91.54417322143357 116.88568735931287 0.9999999999999999
  endloop
endfacet
facet normal 0.0 0.0 -1.0
  outer loop
    vertex 99.03829957234376 109.97836399937732 0.9999999999999999
    vertex 91.54417322143357 116.88568735931287 0.9999999999999999
    vertex 91.95622739904483 117.3709644901143 0.9999999999999999
  endloop
endfacet
facet normal 0.0 0.0 -1.0
  outer loop
    vertex 99.03829957234376 109.97836399937732 0.9999999999999999
    vertex 91.95622739904483 117.3709644901143 0.9999999999999999
    vertex 92.3256427710557 117.8894380399583 0.9999999999999999
  endloop
endfacet
facet normal 0.0 0.0 -1.0
  outer loop
    vertex 99.03829957234376 109.97836399937732 0.9999999999999999
    vertex 92.3256427710557 117.8894380399583 0.9999999999999999
    vertex 92.64975769124571 118.43737239503744 0.9999999999999999
  endloop
endfacet
facet normal 0.0 0.0 -1.0
  outer loop
    vertex 99.03829957234376 109.97836399937732 0.9999999999999999
    vertex 92.64975769124571 118.43737239503744 0.9999999999999999
    vertex 92.92623690418782 119.01081967576748 0.9999999999999999
  endloop
endfacet
facet normal 0.0 0.0 -1.0
  outer loop
    vertex 99.03829957234376 109.97836399937732 0.9999999999999999
    vertex 92.92623690418782 119.01081967576748 0.9999999999999999
    vertex 93.15308837081727 119.60564818135026 0.9999999999999999
  endloop
endfacet
facet normal 0.0 0.0 -1.0
  outer loop
    vertex 99.03829957234376 109.97836399937732 0.9999999999999999
    vertex 93.15308837081727 119.60564818135026 0.9999999999999999
    vertex 93.32867762111871 120.21757215877258 0.9999999999999999
  endloop
endfacet
facet normal 0.0 0.0 -1.0
  outer loop
    vertex 99.03829957234376 109.97836399937732 0.9999999999999999
    vertex 93.32867762111871 120.21757215877258 0.9999999999999999
    vertex 93.45173953052011 120.8421826817549 0.9999999999999999
  endloop
endfacet
facet normal 0.0 0.0 -1.0
  outer loop
    vertex 99.03829957234376 109.97836399937732 0.9999999999999999
    vertex 93.45173953052011 120.8421826817549 0.9999999999999999
    vertex 93.52138743514425 121.47497941716624 0.9999999999999999
  endloop
endfacet
facet normal 0.0 0.0 -1.0
  outer loop
    vertex 99.03829957234376 109.97836399937732 0.9999999999999999
    vertex 93.52138743514425 121.47497941716624 0.9999999999999999
    vertex 93.53383085910829 121.97836399937732 0.9999999999999999
  endloop
endfacet
facet normal 0.0 0.0 -1.0
  outer loop
    vertex 99.03829957234376 109.97836399937732 0.9999999999999999
    vertex 93.53383085910829 121.97836399937732 0.9999999999999999
    vertex 93.53711952024237 122.11140305002742 0.9999999999999999
  endloop
endfacet
facet normal 0.0 0.0 -1.0
  outer loop
    vertex 99.03829957234376 109.97836399937732 0.9999999999999999
    vertex 93.53711952024237 122.11140305002742 0.9999999999999999
    vertex 99.03829957234376 133.9783639993773 0.9999999999999999
  endloop
endfacet
facet normal 1.0 0.0 0.0
  outer loop
    vertex 99.03829957234376 133.9783639993773 0.9999999999999999
    vertex 99.03829957234376 109.97836399937732 9.999999999999998
    vertex 99.03829957234376 109.97836399937732 0.9999999999999999
  endloop
endfacet
facet normal 1.0 0.0 0.0
  outer loop
    vertex 99.03829957234376 109.97836399937732 9.999999999999998
    vertex 99.03829957234376 133.9783639993773 0.9999999999999999
    vertex 99.03829957234376 133.9783639993773 9.999999999999998
  endloop
endfacet
facet normal -0.3498126477965428 0.9368196792561373 0.0
  outer loop
    vertex 88.36133232544421 114.8471986788969 1.9999999999999998
    vertex 88.95772864092612 115.06989572388265 0.9999999999999999
    vertex 88.36133232544421 114.8471986788969 0.9999999999999999
  endloop
endfacet
facet normal -0.3498126477965428 0.9368196792561373 0.0
  outer loop
    vertex 88.95772864092612 115.06989572388265 0.9999999999999999
    vertex 88.36133232544421 114.8471986788969 1.9999999999999998
    vertex 88.95772864092612 115.06989572388265 1.9999999999999998
  endloop
endfacet
facet normal 0.762273599326999 -0.647254941865307 0.0
  outer loop
    vertex 80.53242592325392 127.07104063944178 0.9999999999999999
    vertex 80.12037174564269 126.58576350864034 1.9999999999999998
    vertex 80.12037174564269 126.58576350864034 0.9999999999999999
  endloop
endfacet
facet normal 0.762273599326999 -0.647254941865307 0.0
  outer loop
    vertex 80.12037174564269 126.58576350864034 1.9999999999999998
    vertex 80.53242592325392 127.07104063944178 0.9999999999999999
    vertex 80.53242592325392 127.07104063944178 1.9999999999999998
  endloop
endfacet
facet normal -0.39567257648130616 -0.9183916442458766 -0.0
  outer loop
    vertex 89.29550238613204 128.73414891527347 1.9999999999999998
    vertex 88.71083769032577 128.98604121853725 0.9999999999999999
    vertex 89.29550238613204 128.73414891527347 0.9999999999999999
  endloop
endfacet
facet normal -0.39567257648130616 -0.9183916442458766 -0.0
  outer loop
    vertex 88.71083769032577 128.98604121853725 0.9999999999999999
    vertex 89.29550238613204 128.73414891527347 1.9999999999999998
    vertex 88.71083769032577 128.98604121853725 1.9999999999999998
  endloop
endfacet
facet normal -1.0 0.0 0.0
  outer loop
    vertex 86.03829957234382 133.9783639993773 9.999999999999998
    vertex 86.03829957234382 109.97836399937732 8.999999999999998
    vertex 86.03829957234382 109.97836399937732 9.999999999999998
  endloop
endfacet
facet normal -1.0 0.0 0.0
  outer loop
    vertex 86.03829957234382 109.97836399937732 8.999999999999998
    vertex 86.03829957234382 133.9783639993773 9.999999999999998
    vertex 86.03829957234382 133.9783639993773 8.999999999999998
  endloop
endfacet
facet normal -0.4721322139119864 -0.881527749186925 -0.0
  outer loop
    vertex 89.85669886102632 128.43358102688217 1.9999999999999998
    vertex 89.29550238613204 128.73414891527347 0.9999999999999999
    vertex 89.85669886102632 128.43358102688217 0.9999999999999999
  endloop
endfacet
facet normal -0.4721322139119864 -0.881527749186925 -0.0
  outer loop
    vertex 89.29550238613204 128.73414891527347 0.9999999999999999
    vertex 89.85669886102632 128.43358102688217 1.9999999999999998
    vertex 89.29550238613204 128.73414891527347 1.9999999999999998
  endloop
endfacet
endsolid Macbook-ollo
